<?xml version="1.0" encoding="UTF-8"?>
<!DOCTYPE svg PUBLIC "-//W3C//DTD SVG 1.1//EN" "http://www.w3.org/Graphics/SVG/1.1/DTD/svg11.dtd">
<svg xmlns="http://www.w3.org/2000/svg" version="1.1" width="1140px" height="808px" style="shape-rendering:geometricPrecision; text-rendering:geometricPrecision; image-rendering:optimizeQuality; fill-rule:evenodd; clip-rule:evenodd" xmlns:xlink="http://www.w3.org/1999/xlink">
<g><path style="opacity:1" fill="#029fbc" d="M -0.5,-0.5 C 378.5,-0.5 757.5,-0.5 1136.5,-0.5C 1136.67,268.167 1136.5,536.834 1136,805.5C 1133.86,804.231 1131.69,804.231 1129.5,805.5C 1132.31,806.168 1134.97,806.834 1137.5,807.5C 766.167,807.5 394.833,807.5 23.5,807.5C 29.4713,804.656 35.8046,802.489 42.5,801C 52.7417,795.695 63.4084,791.362 74.5,788C 80.1469,785.212 85.8136,782.546 91.5,780C 100.368,778.068 108.701,774.735 116.5,770C 120.662,769.474 124.662,768.474 128.5,767C 129,766.5 129.5,766 130,765.5C 130.498,762.518 130.665,759.518 130.5,756.5C 131.451,755.081 131.784,753.415 131.5,751.5C 133.5,751.5 135.5,751.5 137.5,751.5C 137.5,749.833 137.5,748.167 137.5,746.5C 143.841,745.22 149.841,743.053 155.5,740C 163.317,738.97 170.984,737.303 178.5,735C 189.583,729.972 201.083,726.139 213,723.5C 215.912,723.358 217.412,724.691 217.5,727.5C 220.518,727.665 223.518,727.498 226.5,727C 242.485,721.45 258.152,715.116 273.5,708C 277.366,705.421 277.366,702.755 273.5,700C 277.944,697.889 278.611,694.889 275.5,691C 273.288,690.211 271.288,690.378 269.5,691.5C 268.5,691.5 267.5,691.5 266.5,691.5C 268.696,683.413 266.362,677.08 259.5,672.5C 257.708,671.691 255.708,671.191 253.5,671C 254.381,670.292 255.047,669.458 255.5,668.5C 259.384,660.127 257.384,653.627 249.5,649C 247.288,648.211 245.288,648.378 243.5,649.5C 241.007,649.869 240.34,649.203 241.5,647.5C 248.883,643.734 250.883,638.067 247.5,630.5C 246.457,627.944 244.79,625.777 242.5,624C 242.957,623.586 243.291,623.086 243.5,622.5C 241.998,618.78 240.665,615.114 239.5,611.5C 238.147,607.968 236.147,604.801 233.5,602C 229.797,601.421 226.131,601.588 222.5,602.5C 222.293,599.759 221.293,597.426 219.5,595.5C 221.54,593.391 223.706,591.391 226,589.5C 226.579,587.351 227.079,585.185 227.5,583C 227.478,580.817 226.478,579.317 224.5,578.5C 222.735,577.539 220.735,577.205 218.5,577.5C 218.833,574.833 219.167,572.167 219.5,569.5C 274.191,577.861 328.857,586.361 383.5,595C 385.231,596.63 387.231,597.797 389.5,598.5C 390.772,598.43 391.938,598.097 393,597.5C 393.944,594.653 393.444,592.153 391.5,590C 395.142,587.123 395.476,583.956 392.5,580.5C 381.951,553.51 371.618,526.51 361.5,499.5C 363.278,495.56 366.278,492.727 370.5,491C 372.038,489.068 373.205,486.901 374,484.5C 375,483.833 376,483.167 377,482.5C 378.767,476.755 379.267,471.088 378.5,465.5C 378.916,435.586 364.249,422.586 334.5,426.5C 334.5,427.5 334.5,428.5 334.5,429.5C 322.187,396.096 309.187,362.929 295.5,330C 289.473,328.611 287.473,330.777 289.5,336.5C 284.532,341.638 279.699,346.971 275,352.5C 246.667,387.5 218.333,422.5 190,457.5C 187.843,459.817 186.343,462.484 185.5,465.5C 180.402,466.191 175.402,467.358 170.5,469C 144.027,479.497 117.36,489.83 90.5,500C 87.6565,501.783 84.6565,503.283 81.5,504.5C 80.3284,506.823 80.3284,509.156 81.5,511.5C 81.2865,513.144 81.6198,514.644 82.5,516C 81.4216,516.674 80.7549,517.674 80.5,519C 82.39,522.668 83.89,526.501 85,530.5C 86.3561,531.38 87.8561,531.714 89.5,531.5C 89.5,531.833 89.5,532.167 89.5,532.5C 85.9908,534.343 84.6574,537.343 85.5,541.5C 81.6906,542.749 77.8573,544.082 74,545.5C 73.3985,548.221 73.5651,550.887 74.5,553.5C 75.128,564.496 78.4613,574.663 84.5,584C 88.3411,583.956 92.0078,583.123 95.5,581.5C 98.0707,582.401 100.404,583.734 102.5,585.5C 103.192,584.975 103.692,584.308 104,583.5C 104.71,584.973 105.876,585.64 107.5,585.5C 110.107,592.655 112.107,599.989 113.5,607.5C 115.696,607.59 117.863,607.923 120,608.5C 123.021,606.962 126.188,606.462 129.5,607C 131.899,608.98 133.899,611.147 135.5,613.5C 133.189,616.663 131.022,619.997 129,623.5C 124.866,634.069 121.033,644.736 117.5,655.5C 114.817,657.585 111.817,658.918 108.5,659.5C 104.37,656.915 100.37,657.249 96.5,660.5C 95.8279,658.332 94.3279,656.999 92,656.5C 60.9739,667.675 30.1406,679.342 -0.5,691.5C -0.5,460.833 -0.5,230.167 -0.5,-0.5 Z"/></g>
<g><path style="opacity:1" fill="#039dbd" d="M 1136.5,-0.5 C 1137.5,-0.5 1138.5,-0.5 1139.5,-0.5C 1139.5,268.833 1139.5,538.167 1139.5,807.5C 1138.83,807.5 1138.17,807.5 1137.5,807.5C 1134.97,806.834 1132.31,806.168 1129.5,805.5C 1131.69,804.231 1133.86,804.231 1136,805.5C 1136.5,536.834 1136.67,268.167 1136.5,-0.5 Z"/></g>
<g><path style="opacity:1" fill="#bae6ea" d="M 483.5,127.5 C 482.883,127.389 482.383,127.056 482,126.5C 481.465,129.969 480.298,132.969 478.5,135.5C 478.778,131.351 480.111,127.684 482.5,124.5C 483.386,125.325 483.719,126.325 483.5,127.5 Z"/></g>
<g><path style="opacity:1" fill="#f8fbfc" d="M 722.5,90.5 C 660.312,154.525 597.812,218.525 535,282.5C 518.857,250.881 502.191,219.548 485,188.5C 483.628,189.91 482.795,191.577 482.5,193.5C 476.732,203.371 471.732,213.704 467.5,224.5C 465.755,226.033 464.755,228.033 464.5,230.5C 449.309,264.208 433.642,297.541 417.5,330.5C 416.596,329.791 416.263,328.791 416.5,327.5C 436.173,266.134 455.839,204.8 475.5,143.5C 476.251,140.754 477.251,138.087 478.5,135.5C 480.298,132.969 481.465,129.969 482,126.5C 482.383,127.056 482.883,127.389 483.5,127.5C 500.362,164.224 517.528,200.89 535,237.5C 535.49,238.793 535.657,240.127 535.5,241.5C 536.552,241.649 537.552,241.483 538.5,241C 610.927,178.894 683.594,117.228 756.5,56C 744.965,67.3682 733.631,78.8682 722.5,90.5 Z"/></g>
<g><path style="opacity:1" fill="#177c90" d="M 482.5,193.5 C 482.795,191.577 483.628,189.91 485,188.5C 502.191,219.548 518.857,250.881 535,282.5C 597.812,218.525 660.312,154.525 722.5,90.5C 728.317,85.5239 734.317,80.6906 740.5,76C 741.416,75.6258 742.25,75.1258 743,74.5C 743.667,75.1667 743.667,75.8333 743,76.5C 732.309,86.1915 721.976,96.1915 712,106.5C 710.333,108.833 708.667,111.167 707,113.5C 685.3,136.24 662.966,158.573 640,180.5C 614.002,208.498 587.335,235.832 560,262.5C 549.935,274.397 539.102,285.397 527.5,295.5C 526.833,295.167 526.167,294.833 525.5,294.5C 524.833,292.5 524.167,290.5 523.5,288.5C 519.184,284.872 516.684,280.206 516,274.5C 510.455,266.356 505.955,257.69 502.5,248.5C 501.24,247.618 500.074,246.618 499,245.5C 496.388,237.61 492.722,230.277 488,223.5C 486.416,217.666 483.749,212.332 480,207.5C 479.333,205.167 479.333,202.833 480,200.5C 482.103,198.697 482.936,196.364 482.5,193.5 Z"/></g>
<g><path style="opacity:1" fill="#9bdbe9" d="M 467.5,224.5 C 467.245,226.967 466.245,228.967 464.5,230.5C 464.755,228.033 465.755,226.033 467.5,224.5 Z"/></g>
<g><path style="opacity:1" fill="#a9dee8" d="M 759.5,275.5 C 754.417,277.078 749.084,277.745 743.5,277.5C 748.616,276.194 753.949,275.527 759.5,275.5 Z"/></g>
<g><path style="opacity:1" fill="#b9e4ed" d="M 679.5,285.5 C 673.114,287.468 666.448,288.468 659.5,288.5C 665.926,286.754 672.593,285.754 679.5,285.5 Z"/></g>
<g><path style="opacity:1" fill="#65bcca" d="M 663.5,299.5 C 659.5,300.5 655.5,301.5 651.5,302.5C 650.167,302.5 648.833,302.5 647.5,302.5C 652.451,300.227 657.784,299.227 663.5,299.5 Z"/></g>
<g><path style="opacity:1" fill="#0e7b90" d="M 638.5,316.5 C 636.882,312.311 635.882,307.978 635.5,303.5C 639.534,303.495 643.534,303.162 647.5,302.5C 648.833,302.5 650.167,302.5 651.5,302.5C 708.715,294.515 766.048,287.348 823.5,281C 833.314,278.109 843.314,276.775 853.5,277C 852.692,277.308 852.025,277.808 851.5,278.5C 842.519,279.829 833.519,280.995 824.5,282C 793.327,288.646 761.993,294.312 730.5,299C 728.051,299.725 725.717,300.725 723.5,302C 695.133,306.676 666.8,311.509 638.5,316.5 Z"/></g>
<g><path style="opacity:1" fill="#1f8195" d="M 475.5,143.5 C 455.839,204.8 436.173,266.134 416.5,327.5C 414.268,331.052 412.934,335.052 412.5,339.5C 411.242,343.59 409.575,347.59 407.5,351.5C 406.359,349.579 406.192,347.579 407,345.5C 429.561,276.153 452.228,207.153 475,138.5C 475.494,140.134 475.66,141.801 475.5,143.5 Z"/></g>
<g><path style="opacity:1" fill="#9dcfdb" d="M 416.5,327.5 C 416.263,328.791 416.596,329.791 417.5,330.5C 416.185,333.412 415.018,336.412 414,339.5C 413.31,340.738 412.81,340.738 412.5,339.5C 412.934,335.052 414.268,331.052 416.5,327.5 Z"/></g>
<g><path style="opacity:1" fill="#f4fafa" d="M 663.5,299.5 C 657.784,299.227 652.451,300.227 647.5,302.5C 643.534,303.162 639.534,303.495 635.5,303.5C 635.882,307.978 636.882,312.311 638.5,316.5C 647.59,346.945 655.923,377.612 663.5,408.5C 659.239,408.898 655.239,409.898 651.5,411.5C 640.478,413.172 629.478,415.005 618.5,417C 614.616,417.864 610.949,419.03 607.5,420.5C 603.103,420.425 598.77,420.925 594.5,422C 550.201,431.194 505.868,440.527 461.5,450C 457.527,450.998 453.527,451.331 449.5,451C 512.99,434.068 576.323,416.902 639.5,399.5C 643.167,398.833 646.833,398.167 650.5,397.5C 642.24,366.783 632.907,336.45 622.5,306.5C 621.755,301.772 620.755,297.106 619.5,292.5C 632.817,291.002 646.15,289.669 659.5,288.5C 666.448,288.468 673.114,287.468 679.5,285.5C 700.698,282.773 722.032,280.106 743.5,277.5C 749.084,277.745 754.417,277.078 759.5,275.5C 789.711,270.765 820.045,267.265 850.5,265C 806.875,272.925 763.209,280.592 719.5,288C 700.644,291.514 681.977,295.347 663.5,299.5 Z"/></g>
<g><path style="opacity:1" fill="#f3f7f8" d="M 289.5,336.5 C 306.953,379.858 323.62,423.524 339.5,467.5C 339.5,468.5 339.5,469.5 339.5,470.5C 333.297,471.623 327.297,473.456 321.5,476C 303.632,484.179 285.299,491.179 266.5,497C 253.792,502.858 240.792,507.858 227.5,512C 220.439,514.87 213.439,517.703 206.5,520.5C 206.771,518.62 206.104,517.287 204.5,516.5C 198.351,499.381 192.018,482.381 185.5,465.5C 186.343,462.484 187.843,459.817 190,457.5C 218.333,422.5 246.667,387.5 275,352.5C 279.699,346.971 284.532,341.638 289.5,336.5 Z"/></g>
<g><path style="opacity:1" fill="#177d90" d="M 622.5,306.5 C 632.907,336.45 642.24,366.783 650.5,397.5C 646.833,398.167 643.167,398.833 639.5,399.5C 630.243,368.865 621.243,338.198 612.5,307.5C 615.786,306.793 619.119,306.46 622.5,306.5 Z"/></g>
<g><path style="opacity:1" fill="#28474a" d="M 334.5,429.5 C 338.809,441.817 343.476,454.15 348.5,466.5C 347.883,466.389 347.383,466.056 347,465.5C 345.665,467.605 343.998,468.271 342,467.5C 341.82,469.488 341.986,471.488 342.5,473.5C 341.203,471.629 340.203,469.629 339.5,467.5C 323.62,423.524 306.953,379.858 289.5,336.5C 287.473,330.777 289.473,328.611 295.5,330C 309.187,362.929 322.187,396.096 334.5,429.5 Z"/></g>
<g><path style="opacity:1" fill="#0d7a8f" d="M 651.5,411.5 C 652.552,411.351 653.552,411.517 654.5,412C 654.167,412.333 653.833,412.667 653.5,413C 655.352,416.239 656.352,419.739 656.5,423.5C 633.573,426.652 610.907,431.152 588.5,437C 536.73,446.878 485.063,457.378 433.5,468.5C 432.833,468.333 432.167,468.167 431.5,468C 434.167,467 436.833,466 439.5,465C 495.875,450.706 551.875,435.872 607.5,420.5C 610.949,419.03 614.616,417.864 618.5,417C 629.478,415.005 640.478,413.172 651.5,411.5 Z"/></g>
<g><path style="opacity:1" fill="#e4e6e7" d="M 378.5,465.5 C 375.712,477.282 368.712,485.282 357.5,489.5C 355.111,481.678 352.111,474.012 348.5,466.5C 343.476,454.15 338.809,441.817 334.5,429.5C 334.5,428.5 334.5,427.5 334.5,426.5C 364.249,422.586 378.916,435.586 378.5,465.5 Z"/></g>
<g><path style="opacity:1" fill="#264448" d="M 185.5,465.5 C 192.018,482.381 198.351,499.381 204.5,516.5C 205.038,518.117 205.371,519.784 205.5,521.5C 192.339,525.875 179.339,530.708 166.5,536C 164.845,537.444 164.178,539.278 164.5,541.5C 163.5,539.5 162.5,537.5 161.5,535.5C 160.363,531.421 159.029,527.421 157.5,523.5C 157.245,521.033 156.245,519.033 154.5,517.5C 153.986,511.808 150.986,509.308 145.5,510C 144.196,510.804 143.529,511.971 143.5,513.5C 146.349,521.593 149.349,529.593 152.5,537.5C 151.21,536.942 150.377,535.942 150,534.5C 149.405,535.899 149.572,537.232 150.5,538.5C 150.154,539.696 149.654,539.696 149,538.5C 148.508,539.549 148.674,540.549 149.5,541.5C 147.495,542.337 146.495,543.837 146.5,546C 146.943,547.825 147.277,549.658 147.5,551.5C 145.327,546.326 143.327,540.992 141.5,535.5C 141.245,533.033 140.245,531.033 138.5,529.5C 137.465,525.561 136.131,521.728 134.5,518C 132.305,516.627 129.971,516.294 127.5,517C 126.903,518.062 126.57,519.228 126.5,520.5C 129.071,530.459 132.404,540.125 136.5,549.5C 134.302,548.933 131.969,548.933 129.5,549.5C 129.371,551.216 129.038,552.883 128.5,554.5C 124.468,544.249 120.135,534.082 115.5,524C 110.014,522.175 107.514,524.008 108,529.5C 112.128,538.751 115.962,548.084 119.5,557.5C 118.25,557.423 117.417,556.756 117,555.5C 112.347,556.663 107.847,558.33 103.5,560.5C 102.873,561.417 102.539,562.417 102.5,563.5C 99.839,557.51 97.1723,551.51 94.5,545.5C 94.7406,543.102 94.0739,541.102 92.5,539.5C 91.9451,536.904 90.9451,534.571 89.5,532.5C 89.5,532.167 89.5,531.833 89.5,531.5C 87.352,524.55 84.6854,517.884 81.5,511.5C 80.3284,509.156 80.3284,506.823 81.5,504.5C 84.6565,503.283 87.6565,501.783 90.5,500C 117.36,489.83 144.027,479.497 170.5,469C 175.402,467.358 180.402,466.191 185.5,465.5 Z"/></g>
<g><path style="opacity:1" fill="#e5e6e8" d="M 339.5,467.5 C 340.203,469.629 341.203,471.629 342.5,473.5C 356.55,510.246 370.55,546.913 384.5,583.5C 384.209,584.649 383.376,585.316 382,585.5C 328.065,577.114 274.232,568.448 220.5,559.5C 219.318,555.104 217.985,550.771 216.5,546.5C 216.065,543.843 215.065,541.509 213.5,539.5C 213.5,539.167 213.5,538.833 213.5,538.5C 213.245,536.033 212.245,534.033 210.5,532.5C 209.978,529.432 209.145,526.432 208,523.5C 207.583,522.244 206.75,521.577 205.5,521.5C 205.371,519.784 205.038,518.117 204.5,516.5C 206.104,517.287 206.771,518.62 206.5,520.5C 213.439,517.703 220.439,514.87 227.5,512C 240.792,507.858 253.792,502.858 266.5,497C 285.299,491.179 303.632,484.179 321.5,476C 327.297,473.456 333.297,471.623 339.5,470.5C 339.5,469.5 339.5,468.5 339.5,467.5 Z"/></g>
<g><path style="opacity:1" fill="#19889e" d="M 378.5,465.5 C 379.267,471.088 378.767,476.755 377,482.5C 376,483.167 375,483.833 374,484.5C 373.205,486.901 372.038,489.068 370.5,491C 366.278,492.727 363.278,495.56 361.5,499.5C 360.211,496.24 358.878,492.906 357.5,489.5C 368.712,485.282 375.712,477.282 378.5,465.5 Z"/></g>
<g><path style="opacity:1" fill="#74888a" d="M 154.5,517.5 C 156.245,519.033 157.245,521.033 157.5,523.5C 155.755,521.967 154.755,519.967 154.5,517.5 Z"/></g>
<g><path style="opacity:1" fill="#183638" d="M 205.5,521.5 C 206.75,521.577 207.583,522.244 208,523.5C 209.145,526.432 209.978,529.432 210.5,532.5C 210.755,534.967 211.755,536.967 213.5,538.5C 213.5,538.833 213.5,539.167 213.5,539.5C 213.166,542.491 214.166,544.824 216.5,546.5C 217.985,550.771 219.318,555.104 220.5,559.5C 218.498,561.27 216.164,562.603 213.5,563.5C 211.972,564.309 210.306,564.976 208.5,565.5C 197.269,569.449 186.269,573.949 175.5,579C 171.45,579.794 167.45,580.794 163.5,582C 158.125,583.907 153.125,586.574 148.5,590C 145.167,590.667 141.833,591.333 138.5,592C 134.045,594.561 129.379,596.395 124.5,597.5C 121.313,600.109 117.98,600.109 114.5,597.5C 112.258,589.093 109.258,581.093 105.5,573.5C 104.099,570.296 103.099,566.963 102.5,563.5C 102.539,562.417 102.873,561.417 103.5,560.5C 107.847,558.33 112.347,556.663 117,555.5C 117.417,556.756 118.25,557.423 119.5,557.5C 120.562,560.516 121.729,563.516 123,566.5C 127.389,568.597 129.889,567.264 130.5,562.5C 130.032,559.767 129.365,557.1 128.5,554.5C 129.038,552.883 129.371,551.216 129.5,549.5C 131.969,548.933 134.302,548.933 136.5,549.5C 137.07,554.684 139.57,558.351 144,560.5C 145.711,560.561 147.044,559.894 148,558.5C 148.703,556.071 148.537,553.738 147.5,551.5C 147.277,549.658 146.943,547.825 146.5,546C 146.495,543.837 147.495,542.337 149.5,541.5C 148.674,540.549 148.508,539.549 149,538.5C 149.654,539.696 150.154,539.696 150.5,538.5C 149.572,537.232 149.405,535.899 150,534.5C 150.377,535.942 151.21,536.942 152.5,537.5C 153.11,538.391 153.443,539.391 153.5,540.5C 154.11,541.391 154.443,542.391 154.5,543.5C 154.755,545.967 155.755,547.967 157.5,549.5C 158.462,553.146 160.795,554.313 164.5,553C 166.921,549.269 166.921,545.436 164.5,541.5C 164.178,539.278 164.845,537.444 166.5,536C 179.339,530.708 192.339,525.875 205.5,521.5 Z"/></g>
<g><path style="opacity:1" fill="#52bbcf" d="M 655.5,526.5 C 675.993,525.503 696.66,525.169 717.5,525.5C 717.737,526.791 717.404,527.791 716.5,528.5C 696.527,526.512 676.194,525.845 655.5,526.5 Z"/></g>
<g><path style="opacity:1" fill="#6fc5d7" d="M 607.5,526.5 C 607.5,526.833 607.5,527.167 607.5,527.5C 599.5,527.5 591.5,527.5 583.5,527.5C 552.498,527.333 521.498,527.5 490.5,528C 497.63,528.958 504.63,529.792 511.5,530.5C 498.089,530.605 484.755,529.605 471.5,527.5C 516.828,526.5 562.162,526.167 607.5,526.5 Z"/></g>
<g><path style="opacity:1" fill="#cdecf0" d="M 607.5,527.5 C 607.5,527.167 607.5,526.833 607.5,526.5C 623.5,526.5 639.5,526.5 655.5,526.5C 676.194,525.845 696.527,526.512 716.5,528.5C 715.974,530.23 714.974,531.564 713.5,532.5C 713.5,530.833 713.5,529.167 713.5,527.5C 678.167,527.5 642.833,527.5 607.5,527.5 Z"/></g>
<g><path style="opacity:1" fill="#f8fcfc" d="M 583.5,527.5 C 591.5,527.5 599.5,527.5 607.5,527.5C 642.833,527.5 678.167,527.5 713.5,527.5C 713.5,529.167 713.5,530.833 713.5,532.5C 704.008,548.815 694.508,565.148 685,581.5C 684.383,582.449 684.549,583.282 685.5,584C 735.126,591.457 784.792,598.791 834.5,606C 824.466,606.165 814.466,605.665 804.5,604.5C 795.037,603.053 785.37,602.387 775.5,602.5C 770.167,602.167 764.833,601.833 759.5,601.5C 746.34,600.176 733.007,599.176 719.5,598.5C 703.482,597.766 687.482,596.766 671.5,595.5C 668.833,595.5 666.167,595.5 663.5,595.5C 660.311,594.834 656.977,594.167 653.5,593.5C 663.751,580.65 673.751,567.65 683.5,554.5C 686.929,549.981 690.596,545.648 694.5,541.5C 695.043,541.44 695.376,541.107 695.5,540.5C 684.843,539.612 674.176,538.945 663.5,538.5C 655.729,536.845 647.729,536.178 639.5,536.5C 618.825,535.57 598.158,534.57 577.5,533.5C 574.411,532.215 571.078,531.549 567.5,531.5C 567.5,530.5 567.5,529.5 567.5,528.5C 573.026,528.821 578.36,528.488 583.5,527.5 Z"/></g>
<g><path style="opacity:1" fill="#e6f5f7" d="M 583.5,527.5 C 578.36,528.488 573.026,528.821 567.5,528.5C 567.5,529.5 567.5,530.5 567.5,531.5C 571.078,531.549 574.411,532.215 577.5,533.5C 555.498,532.555 533.498,531.555 511.5,530.5C 504.63,529.792 497.63,528.958 490.5,528C 521.498,527.5 552.498,527.333 583.5,527.5 Z"/></g>
<g><path style="opacity:1" fill="#0c8196" d="M 81.5,511.5 C 84.6854,517.884 87.352,524.55 89.5,531.5C 87.8561,531.714 86.3561,531.38 85,530.5C 83.89,526.501 82.39,522.668 80.5,519C 80.7549,517.674 81.4216,516.674 82.5,516C 81.6198,514.644 81.2865,513.144 81.5,511.5 Z"/></g>
<g><path style="opacity:1" fill="#eaeeef" d="M 138.5,529.5 C 138.755,531.967 139.755,533.967 141.5,535.5C 143.327,540.992 145.327,546.326 147.5,551.5C 148.537,553.738 148.703,556.071 148,558.5C 147.044,559.894 145.711,560.561 144,560.5C 139.57,558.351 137.07,554.684 136.5,549.5C 132.404,540.125 129.071,530.459 126.5,520.5C 126.57,519.228 126.903,518.062 127.5,517C 129.971,516.294 132.305,516.627 134.5,518C 136.131,521.728 137.465,525.561 138.5,529.5 Z"/></g>
<g><path style="opacity:1" fill="#ecf0f2" d="M 154.5,517.5 C 154.755,519.967 155.755,521.967 157.5,523.5C 159.029,527.421 160.363,531.421 161.5,535.5C 160.305,538.211 158.472,540.544 156,542.5C 155.583,541.244 154.75,540.577 153.5,540.5C 153.443,539.391 153.11,538.391 152.5,537.5C 149.349,529.593 146.349,521.593 143.5,513.5C 143.529,511.971 144.196,510.804 145.5,510C 150.986,509.308 153.986,511.808 154.5,517.5 Z"/></g>
<g><path style="opacity:1" fill="#7d8f91" d="M 138.5,529.5 C 140.245,531.033 141.245,533.033 141.5,535.5C 139.755,533.967 138.755,531.967 138.5,529.5 Z"/></g>
<g><path style="opacity:1" fill="#808f90" d="M 210.5,532.5 C 212.245,534.033 213.245,536.033 213.5,538.5C 211.755,536.967 210.755,534.967 210.5,532.5 Z"/></g>
<g><path style="opacity:1" fill="#9fdbe5" d="M 639.5,536.5 C 647.729,536.178 655.729,536.845 663.5,538.5C 655.271,538.822 647.271,538.155 639.5,536.5 Z"/></g>
<g><path style="opacity:1" fill="#e8eced" d="M 128.5,554.5 C 129.365,557.1 130.032,559.767 130.5,562.5C 129.889,567.264 127.389,568.597 123,566.5C 121.729,563.516 120.562,560.516 119.5,557.5C 115.962,548.084 112.128,538.751 108,529.5C 107.514,524.008 110.014,522.175 115.5,524C 120.135,534.082 124.468,544.249 128.5,554.5 Z"/></g>
<g><path style="opacity:1" fill="#dbdfdf" d="M 161.5,535.5 C 162.5,537.5 163.5,539.5 164.5,541.5C 166.921,545.436 166.921,549.269 164.5,553C 160.795,554.313 158.462,553.146 157.5,549.5C 157.245,547.033 156.245,545.033 154.5,543.5C 154.443,542.391 154.11,541.391 153.5,540.5C 154.75,540.577 155.583,541.244 156,542.5C 158.472,540.544 160.305,538.211 161.5,535.5 Z"/></g>
<g><path style="opacity:1" fill="#1a393a" d="M 348.5,466.5 C 352.111,474.012 355.111,481.678 357.5,489.5C 358.878,492.906 360.211,496.24 361.5,499.5C 371.618,526.51 381.951,553.51 392.5,580.5C 392.98,583.685 392.314,586.519 390.5,589C 389.5,589.667 388.5,589.667 387.5,589C 386.131,587.281 385.131,585.448 384.5,583.5C 370.55,546.913 356.55,510.246 342.5,473.5C 341.986,471.488 341.82,469.488 342,467.5C 343.998,468.271 345.665,467.605 347,465.5C 347.383,466.056 347.883,466.389 348.5,466.5 Z"/></g>
<g><path style="opacity:1" fill="#9fadb0" d="M 92.5,539.5 C 94.0739,541.102 94.7406,543.102 94.5,545.5C 92.9261,543.898 92.2594,541.898 92.5,539.5 Z"/></g>
<g><path style="opacity:1" fill="#607274" d="M 213.5,539.5 C 215.065,541.509 216.065,543.843 216.5,546.5C 214.166,544.824 213.166,542.491 213.5,539.5 Z"/></g>
<g><path style="opacity:1" fill="#849598" d="M 154.5,543.5 C 156.245,545.033 157.245,547.033 157.5,549.5C 155.755,547.967 154.755,545.967 154.5,543.5 Z"/></g>
<g><path style="opacity:1" fill="#0c7a8f" d="M 694.5,541.5 C 690.596,545.648 686.929,549.981 683.5,554.5C 612.889,550.344 542.222,546.177 471.5,542C 524.666,541.392 577.832,540.892 631,540.5C 652.336,540.5 673.503,540.833 694.5,541.5 Z"/></g>
<g><path style="opacity:1" fill="#254447" d="M 85.5,541.5 C 88.2039,549.263 91.3706,556.929 95,564.5C 95.977,566.74 96.477,569.073 96.5,571.5C 93.7743,571.264 91.441,572.097 89.5,574C 87.5,574.667 85.5,574.667 83.5,574C 80.1886,567.207 77.1886,560.374 74.5,553.5C 73.5651,550.887 73.3985,548.221 74,545.5C 77.8573,544.082 81.6906,542.749 85.5,541.5 Z"/></g>
<g><path style="opacity:1" fill="#e1e6e7" d="M 89.5,532.5 C 90.9451,534.571 91.9451,536.904 92.5,539.5C 92.2594,541.898 92.9261,543.898 94.5,545.5C 97.1723,551.51 99.839,557.51 102.5,563.5C 103.099,566.963 104.099,570.296 105.5,573.5C 105.209,574.649 104.376,575.316 103,575.5C 100.458,574.795 98.2916,573.461 96.5,571.5C 96.477,569.073 95.977,566.74 95,564.5C 91.3706,556.929 88.2039,549.263 85.5,541.5C 84.6574,537.343 85.9908,534.343 89.5,532.5 Z"/></g>
<g><path style="opacity:1" fill="#e9eeef" d="M 213.5,563.5 C 217.249,563.617 219.249,565.617 219.5,569.5C 219.167,572.167 218.833,574.833 218.5,577.5C 220.735,577.205 222.735,577.539 224.5,578.5C 224.167,578.5 223.833,578.5 223.5,578.5C 220.098,578.658 216.764,578.324 213.5,577.5C 213.34,575.847 212.674,574.514 211.5,573.5C 210.5,570.833 209.5,568.167 208.5,565.5C 210.306,564.976 211.972,564.309 213.5,563.5 Z"/></g>
<g><path style="opacity:1" fill="#8b9086" d="M 211.5,573.5 C 212.674,574.514 213.34,575.847 213.5,577.5C 211.735,578.461 209.735,578.795 207.5,578.5C 204.833,578.5 202.167,578.5 199.5,578.5C 203.298,577.517 207.298,577.183 211.5,577.5C 211.5,576.167 211.5,574.833 211.5,573.5 Z"/></g>
<g><path style="opacity:1" fill="#0f869d" d="M 220.5,559.5 C 274.232,568.448 328.065,577.114 382,585.5C 383.376,585.316 384.209,584.649 384.5,583.5C 385.131,585.448 386.131,587.281 387.5,589C 388.5,589.667 389.5,589.667 390.5,589C 392.314,586.519 392.98,583.685 392.5,580.5C 395.476,583.956 395.142,587.123 391.5,590C 393.444,592.153 393.944,594.653 393,597.5C 391.938,598.097 390.772,598.43 389.5,598.5C 387.231,597.797 385.231,596.63 383.5,595C 328.857,586.361 274.191,577.861 219.5,569.5C 219.249,565.617 217.249,563.617 213.5,563.5C 216.164,562.603 218.498,561.27 220.5,559.5 Z"/></g>
<g><path style="opacity:1" fill="#f6c292" d="M 199.5,578.5 C 202.167,578.5 204.833,578.5 207.5,578.5C 207.799,581.642 209.466,583.809 212.5,585C 216.114,585.936 219.78,586.436 223.5,586.5C 223.5,583.833 223.5,581.167 223.5,578.5C 223.833,578.5 224.167,578.5 224.5,578.5C 226.478,579.317 227.478,580.817 227.5,583C 227.079,585.185 226.579,587.351 226,589.5C 223.706,591.391 221.54,593.391 219.5,595.5C 209.297,598.108 198.964,600.274 188.5,602C 184.915,608.578 180.582,614.578 175.5,620C 176.954,621.659 178.287,621.326 179.5,619C 186.864,616.495 194.197,613.995 201.5,611.5C 206.239,610.301 210.905,608.801 215.5,607C 216.942,606.623 217.942,605.79 218.5,604.5C 219.995,604.011 221.329,603.345 222.5,602.5C 226.131,601.588 229.797,601.421 233.5,602C 236.147,604.801 238.147,607.968 239.5,611.5C 240.875,618.436 238.208,622.77 231.5,624.5C 217.046,629.43 202.713,634.763 188.5,640.5C 185.684,639.856 183.018,639.523 180.5,639.5C 179.206,637.038 177.706,634.705 176,632.5C 175.216,629.24 175.383,626.073 176.5,623C 175.552,622.517 174.552,622.351 173.5,622.5C 173.582,630.929 172.749,639.263 171,647.5C 168.335,652.823 165.669,658.157 163,663.5C 160.188,667.978 156.688,671.811 152.5,675C 149.202,675.487 146.202,676.653 143.5,678.5C 151.242,686.38 157.076,695.38 161,705.5C 163.471,713.817 162.971,721.817 159.5,729.5C 152.384,732.577 145.051,735.244 137.5,737.5C 135.621,737.607 135.288,737.107 136.5,736C 135.806,732.975 134.806,730.142 133.5,727.5C 127.139,709.303 119.973,691.303 112,673.5C 111.122,668.749 109.955,664.082 108.5,659.5C 111.817,658.918 114.817,657.585 117.5,655.5C 121.033,644.736 124.866,634.069 129,623.5C 131.022,619.997 133.189,616.663 135.5,613.5C 139.482,611.183 142.815,608.183 145.5,604.5C 153.007,596.828 161.007,589.662 169.5,583C 179.273,579.944 189.273,578.444 199.5,578.5 Z"/></g>
<g><path style="opacity:1" fill="#fbe7d2" d="M 213.5,577.5 C 216.764,578.324 220.098,578.658 223.5,578.5C 223.5,581.167 223.5,583.833 223.5,586.5C 219.78,586.436 216.114,585.936 212.5,585C 209.466,583.809 207.799,581.642 207.5,578.5C 209.735,578.795 211.735,578.461 213.5,577.5 Z"/></g>
<g><path style="opacity:1" fill="#274446" d="M 208.5,565.5 C 209.5,568.167 210.5,570.833 211.5,573.5C 211.5,574.833 211.5,576.167 211.5,577.5C 207.298,577.183 203.298,577.517 199.5,578.5C 189.273,578.444 179.273,579.944 169.5,583C 161.007,589.662 153.007,596.828 145.5,604.5C 139.593,603.687 134.259,601.52 129.5,598C 127.866,597.506 126.199,597.34 124.5,597.5C 129.379,596.395 134.045,594.561 138.5,592C 141.833,591.333 145.167,590.667 148.5,590C 153.125,586.574 158.125,583.907 163.5,582C 167.45,580.794 171.45,579.794 175.5,579C 186.269,573.949 197.269,569.449 208.5,565.5 Z"/></g>
<g><path style="opacity:1" fill="#0c7b90" d="M 663.5,595.5 C 666.167,595.5 668.833,595.5 671.5,595.5C 673.834,596.124 676.167,596.957 678.5,598C 726.859,605.253 775.192,612.586 823.5,620C 819.5,620.167 815.5,620.333 811.5,620.5C 756.19,616.425 700.856,612.758 645.5,609.5C 645.608,607.217 646.441,605.217 648,603.5C 650.605,601.14 653.105,598.64 655.5,596C 658.146,595.503 660.813,595.336 663.5,595.5 Z"/></g>
<g><path style="opacity:1" fill="#7bc9da" d="M 719.5,598.5 C 733.007,599.176 746.34,600.176 759.5,601.5C 747.157,601.298 734.824,600.798 722.5,600C 721.263,599.768 720.263,599.268 719.5,598.5 Z"/></g>
<g><path style="opacity:1" fill="#b0e0ec" d="M 775.5,602.5 C 785.37,602.387 795.037,603.053 804.5,604.5C 794.625,604.685 784.958,604.019 775.5,602.5 Z"/></g>
<g><path style="opacity:1" fill="#2b4648" d="M 219.5,595.5 C 221.293,597.426 222.293,599.759 222.5,602.5C 221.329,603.345 219.995,604.011 218.5,604.5C 212.481,606.276 206.814,608.609 201.5,611.5C 194.197,613.995 186.864,616.495 179.5,619C 178.287,621.326 176.954,621.659 175.5,620C 180.582,614.578 184.915,608.578 188.5,602C 198.964,600.274 209.297,598.108 219.5,595.5 Z"/></g>
<g><path style="opacity:1" fill="#12859b" d="M 74.5,553.5 C 77.1886,560.374 80.1886,567.207 83.5,574C 85.5,574.667 87.5,574.667 89.5,574C 91.441,572.097 93.7743,571.264 96.5,571.5C 98.2916,573.461 100.458,574.795 103,575.5C 104.376,575.316 105.209,574.649 105.5,573.5C 109.258,581.093 112.258,589.093 114.5,597.5C 117.98,600.109 121.313,600.109 124.5,597.5C 126.199,597.34 127.866,597.506 129.5,598C 134.259,601.52 139.593,603.687 145.5,604.5C 142.815,608.183 139.482,611.183 135.5,613.5C 133.899,611.147 131.899,608.98 129.5,607C 126.188,606.462 123.021,606.962 120,608.5C 117.863,607.923 115.696,607.59 113.5,607.5C 112.107,599.989 110.107,592.655 107.5,585.5C 105.876,585.64 104.71,584.973 104,583.5C 103.692,584.308 103.192,584.975 102.5,585.5C 100.404,583.734 98.0707,582.401 95.5,581.5C 92.0078,583.123 88.3411,583.956 84.5,584C 78.4613,574.663 75.128,564.496 74.5,553.5 Z"/></g>
<g><path style="opacity:1" fill="#ab987b" d="M 218.5,604.5 C 217.942,605.79 216.942,606.623 215.5,607C 210.905,608.801 206.239,610.301 201.5,611.5C 206.814,608.609 212.481,606.276 218.5,604.5 Z"/></g>
<g><path style="opacity:1" fill="#429dab" d="M 239.5,611.5 C 240.665,615.114 241.998,618.78 243.5,622.5C 243.291,623.086 242.957,623.586 242.5,624C 244.79,625.777 246.457,627.944 247.5,630.5C 245.243,628.077 242.576,626.243 239.5,625C 236.668,624.674 234.001,625.174 231.5,626.5C 231.5,625.833 231.5,625.167 231.5,624.5C 238.208,622.77 240.875,618.436 239.5,611.5 Z"/></g>
<g><path style="opacity:1" fill="#fbe7d0" d="M 181.5,621.5 C 191.52,619.849 195.186,623.849 192.5,633.5C 189.972,635.874 186.972,636.874 183.5,636.5C 182.566,632.412 181.233,628.412 179.5,624.5C 179.942,623.261 180.609,622.261 181.5,621.5 Z"/></g>
<g><path style="opacity:1" fill="#f4c192" d="M 247.5,630.5 C 250.883,638.067 248.883,643.734 241.5,647.5C 226.462,653.042 211.462,658.709 196.5,664.5C 194.146,665.565 191.812,666.732 189.5,668C 181.36,667.841 176.693,663.675 175.5,655.5C 175.896,652.565 176.896,649.898 178.5,647.5C 182.736,645.367 187.069,643.701 191.5,642.5C 204.765,636.968 218.098,631.635 231.5,626.5C 234.001,625.174 236.668,624.674 239.5,625C 242.576,626.243 245.243,628.077 247.5,630.5 Z"/></g>
<g><path style="opacity:1" fill="#e3ae80" d="M 188.5,640.5 C 188.389,641.117 188.056,641.617 187.5,642C 188.793,642.49 190.127,642.657 191.5,642.5C 187.069,643.701 182.736,645.367 178.5,647.5C 176.896,649.898 175.896,652.565 175.5,655.5C 176.693,663.675 181.36,667.841 189.5,668C 191.812,666.732 194.146,665.565 196.5,664.5C 196.821,666.048 197.821,666.715 199.5,666.5C 189.991,667.991 186.658,673.491 189.5,683C 192.203,688.351 196.536,690.518 202.5,689.5C 202.651,686.282 203.484,685.949 205,688.5C 205.671,687.748 206.504,687.414 207.5,687.5C 206.438,688.575 206.438,689.575 207.5,690.5C 208.417,689.873 209.417,689.539 210.5,689.5C 204.974,696.298 205.307,702.965 211.5,709.5C 213.396,710.466 215.396,710.799 217.5,710.5C 216.5,711.167 215.5,711.833 214.5,712.5C 205.304,715.611 196.304,718.944 187.5,722.5C 183.292,722.677 179.626,724.01 176.5,726.5C 171.001,728.414 165.334,729.414 159.5,729.5C 162.971,721.817 163.471,713.817 161,705.5C 157.076,695.38 151.242,686.38 143.5,678.5C 146.202,676.653 149.202,675.487 152.5,675C 156.688,671.811 160.188,667.978 163,663.5C 165.669,658.157 168.335,652.823 171,647.5C 172.749,639.263 173.582,630.929 173.5,622.5C 174.552,622.351 175.552,622.517 176.5,623C 175.383,626.073 175.216,629.24 176,632.5C 177.706,634.705 179.206,637.038 180.5,639.5C 183.018,639.523 185.684,639.856 188.5,640.5 Z"/></g>
<g><path style="opacity:1" fill="#485650" d="M 231.5,624.5 C 231.5,625.167 231.5,625.833 231.5,626.5C 218.098,631.635 204.765,636.968 191.5,642.5C 190.127,642.657 188.793,642.49 187.5,642C 188.056,641.617 188.389,641.117 188.5,640.5C 202.713,634.763 217.046,629.43 231.5,624.5 Z"/></g>
<g><path style="opacity:1" fill="#f4c191" d="M 255.5,668.5 C 253.517,669.471 251.517,670.471 249.5,671.5C 235.633,677.135 221.633,682.469 207.5,687.5C 206.504,687.414 205.671,687.748 205,688.5C 203.484,685.949 202.651,686.282 202.5,689.5C 196.536,690.518 192.203,688.351 189.5,683C 186.658,673.491 189.991,667.991 199.5,666.5C 214.177,660.813 228.844,655.146 243.5,649.5C 245.288,648.378 247.288,648.211 249.5,649C 257.384,653.627 259.384,660.127 255.5,668.5 Z"/></g>
<g><path style="opacity:1" fill="#4b5953" d="M 241.5,647.5 C 240.34,649.203 241.007,649.869 243.5,649.5C 228.844,655.146 214.177,660.813 199.5,666.5C 197.821,666.715 196.821,666.048 196.5,664.5C 211.462,658.709 226.462,653.042 241.5,647.5 Z"/></g>
<g><path style="opacity:1" fill="#fbe6d0" d="M 185.5,648.5 C 196.262,647.739 198.929,651.905 193.5,661C 191.164,663.833 188.164,665 184.5,664.5C 184.199,660.163 183.199,655.996 181.5,652C 182.347,650.229 183.68,649.063 185.5,648.5 Z"/></g>
<g><path style="opacity:1" fill="#faf9f7" d="M 108.5,659.5 C 109.955,664.082 111.122,668.749 112,673.5C 119.973,691.303 127.139,709.303 133.5,727.5C 133.799,729.604 133.466,731.604 132.5,733.5C 129.227,735.527 125.894,736.194 122.5,735.5C 121.691,733.972 121.024,732.306 120.5,730.5C 117.125,722.717 114.125,714.717 111.5,706.5C 111.065,703.843 110.065,701.509 108.5,699.5C 108.5,699.167 108.5,698.833 108.5,698.5C 108.245,696.033 107.245,694.033 105.5,692.5C 101.848,682.507 98.1811,672.507 94.5,662.5C 94.8555,661.478 95.5222,660.811 96.5,660.5C 100.37,657.249 104.37,656.915 108.5,659.5 Z"/></g>
<g><path style="opacity:1" fill="#414143" d="M 96.5,660.5 C 95.5222,660.811 94.8555,661.478 94.5,662.5C 98.1811,672.507 101.848,682.507 105.5,692.5C 105.755,694.967 106.755,696.967 108.5,698.5C 108.5,698.833 108.5,699.167 108.5,699.5C 108.166,702.491 109.166,704.824 111.5,706.5C 114.125,714.717 117.125,722.717 120.5,730.5C 115.752,731.228 111.086,732.395 106.5,734C 71.9494,747.577 37.2827,761.077 2.5,774.5C 1.79105,773.596 0.791047,773.263 -0.5,773.5C -0.5,746.167 -0.5,718.833 -0.5,691.5C 30.1406,679.342 60.9739,667.675 92,656.5C 94.3279,656.999 95.8279,658.332 96.5,660.5 Z"/></g>
<g><path style="opacity:1" fill="#fbe6d1" d="M 194.5,670.5 C 198.226,670.177 201.893,670.511 205.5,671.5C 208.528,674.33 209.195,677.664 207.5,681.5C 205.105,684.115 202.272,686.115 199,687.5C 197.529,683.419 195.862,679.419 194,675.5C 193.36,673.735 193.527,672.068 194.5,670.5 Z"/></g>
<g><path style="opacity:1" fill="#5f979b" d="M 255.5,668.5 C 255.047,669.458 254.381,670.292 253.5,671C 255.708,671.191 257.708,671.691 259.5,672.5C 256.455,672.508 253.455,672.841 250.5,673.5C 250.167,672.833 249.833,672.167 249.5,671.5C 251.517,670.471 253.517,669.471 255.5,668.5 Z"/></g>
<g><path style="opacity:1" fill="#3e4f4c" d="M 249.5,671.5 C 249.833,672.167 250.167,672.833 250.5,673.5C 237.094,678.878 223.76,684.211 210.5,689.5C 209.417,689.539 208.417,689.873 207.5,690.5C 206.438,689.575 206.438,688.575 207.5,687.5C 221.633,682.469 235.633,677.135 249.5,671.5 Z"/></g>
<g><path style="opacity:1" fill="#f3c191" d="M 259.5,672.5 C 266.362,677.08 268.696,683.413 266.5,691.5C 263.868,692.472 261.535,693.805 259.5,695.5C 255.233,696.256 251.233,697.589 247.5,699.5C 237.482,702.939 227.482,706.606 217.5,710.5C 215.396,710.799 213.396,710.466 211.5,709.5C 205.307,702.965 204.974,696.298 210.5,689.5C 223.76,684.211 237.094,678.878 250.5,673.5C 253.455,672.841 256.455,672.508 259.5,672.5 Z"/></g>
<g><path style="opacity:1" fill="#a2a2a2" d="M 105.5,692.5 C 107.245,694.033 108.245,696.033 108.5,698.5C 106.755,696.967 105.755,694.967 105.5,692.5 Z"/></g>
<g><path style="opacity:1" fill="#fbe6ce" d="M 211.5,691.5 C 223.635,690.077 227.302,695.077 222.5,706.5C 219.84,707.347 217.174,707.847 214.5,708C 212.103,704.19 210.77,700.024 210.5,695.5C 209.448,695.649 208.448,695.483 207.5,695C 209.027,693.968 210.36,692.801 211.5,691.5 Z"/></g>
<g><path style="opacity:1" fill="#656859" d="M 259.5,695.5 C 255.915,697.806 251.915,699.139 247.5,699.5C 251.233,697.589 255.233,696.256 259.5,695.5 Z"/></g>
<g><path style="opacity:1" fill="#848485" d="M 108.5,699.5 C 110.065,701.509 111.065,703.843 111.5,706.5C 109.166,704.824 108.166,702.491 108.5,699.5 Z"/></g>
<g><path style="opacity:1" fill="#274548" d="M 266.5,691.5 C 267.5,691.5 268.5,691.5 269.5,691.5C 274.675,690.507 276.509,692.507 275,697.5C 273.167,698.667 271.333,699.833 269.5,701C 253.325,706.537 237.325,712.37 221.5,718.5C 217.265,718.592 214.931,716.592 214.5,712.5C 215.5,711.833 216.5,711.167 217.5,710.5C 227.482,706.606 237.482,702.939 247.5,699.5C 251.915,699.139 255.915,697.806 259.5,695.5C 261.535,693.805 263.868,692.472 266.5,691.5 Z"/></g>
<g><path style="opacity:1" fill="#12859b" d="M 269.5,691.5 C 271.288,690.378 273.288,690.211 275.5,691C 278.611,694.889 277.944,697.889 273.5,700C 277.366,702.755 277.366,705.421 273.5,708C 258.152,715.116 242.485,721.45 226.5,727C 223.518,727.498 220.518,727.665 217.5,727.5C 217.412,724.691 215.912,723.358 213,723.5C 201.083,726.139 189.583,729.972 178.5,735C 170.984,737.303 163.317,738.97 155.5,740C 149.841,743.053 143.841,745.22 137.5,746.5C 137.5,748.167 137.5,749.833 137.5,751.5C 135.5,751.5 133.5,751.5 131.5,751.5C 131.784,753.415 131.451,755.081 130.5,756.5C 131.089,752.029 130.423,748.029 128.5,744.5C 131.145,742.69 134.145,741.69 137.5,741.5C 137.5,740.167 137.5,738.833 137.5,737.5C 145.051,735.244 152.384,732.577 159.5,729.5C 165.334,729.414 171.001,728.414 176.5,726.5C 179.738,725.367 183.071,724.533 186.5,724C 187.056,723.617 187.389,723.117 187.5,722.5C 196.304,718.944 205.304,715.611 214.5,712.5C 214.931,716.592 217.265,718.592 221.5,718.5C 237.325,712.37 253.325,706.537 269.5,701C 271.333,699.833 273.167,698.667 275,697.5C 276.509,692.507 274.675,690.507 269.5,691.5 Z"/></g>
<g><path style="opacity:1" fill="#70988e" d="M 187.5,722.5 C 187.389,723.117 187.056,723.617 186.5,724C 183.071,724.533 179.738,725.367 176.5,726.5C 179.626,724.01 183.292,722.677 187.5,722.5 Z"/></g>
<g><path style="opacity:1" fill="#211f20" d="M 120.5,730.5 C 121.024,732.306 121.691,733.972 122.5,735.5C 123.353,738.59 124.353,741.59 125.5,744.5C 126.5,744.5 127.5,744.5 128.5,744.5C 130.423,748.029 131.089,752.029 130.5,756.5C 128.146,756.838 125.813,757.338 123.5,758C 100.171,768.164 76.5042,777.497 52.5,786C 35.7259,793.258 18.7259,799.924 1.5,806C 0.944043,806.383 0.610709,806.883 0.5,807.5C 0.166667,807.5 -0.166667,807.5 -0.5,807.5C -0.5,799.5 -0.5,791.5 -0.5,783.5C 1.02483,780.762 2.02483,777.762 2.5,774.5C 37.2827,761.077 71.9494,747.577 106.5,734C 111.086,732.395 115.752,731.228 120.5,730.5 Z"/></g>
<g><path style="opacity:1" fill="#e0e2e2" d="M 133.5,727.5 C 134.806,730.142 135.806,732.975 136.5,736C 135.288,737.107 135.621,737.607 137.5,737.5C 137.5,738.833 137.5,740.167 137.5,741.5C 134.145,741.69 131.145,742.69 128.5,744.5C 127.5,744.5 126.5,744.5 125.5,744.5C 124.353,741.59 123.353,738.59 122.5,735.5C 125.894,736.194 129.227,735.527 132.5,733.5C 133.466,731.604 133.799,729.604 133.5,727.5 Z"/></g>
<g><path style="opacity:1" fill="#21535f" d="M -0.5,773.5 C 0.791047,773.263 1.79105,773.596 2.5,774.5C 2.02483,777.762 1.02483,780.762 -0.5,783.5C -0.5,780.167 -0.5,776.833 -0.5,773.5 Z"/></g>
<g><path style="opacity:1" fill="#0a8298" d="M 130.5,756.5 C 130.665,759.518 130.498,762.518 130,765.5C 129.5,766 129,766.5 128.5,767C 124.662,768.474 120.662,769.474 116.5,770C 108.701,774.735 100.368,778.068 91.5,780C 85.8136,782.546 80.1469,785.212 74.5,788C 63.4084,791.362 52.7417,795.695 42.5,801C 35.8046,802.489 29.4713,804.656 23.5,807.5C 15.8333,807.5 8.16667,807.5 0.5,807.5C 0.610709,806.883 0.944043,806.383 1.5,806C 18.7259,799.924 35.7259,793.258 52.5,786C 76.5042,777.497 100.171,768.164 123.5,758C 125.813,757.338 128.146,756.838 130.5,756.5 Z"/></g>
</svg>
