<?xml version="1.0" encoding="UTF-8"?>
<!DOCTYPE svg PUBLIC "-//W3C//DTD SVG 1.1//EN" "http://www.w3.org/Graphics/SVG/1.1/DTD/svg11.dtd">
<svg xmlns="http://www.w3.org/2000/svg" version="1.1" width="24px" height="24px" style="shape-rendering:geometricPrecision; text-rendering:geometricPrecision; image-rendering:optimizeQuality; fill-rule:evenodd; clip-rule:evenodd" xmlns:xlink="http://www.w3.org/1999/xlink">
<g><path style="opacity:0.883" fill="#fefffe" d="M 9.5,1.5 C 10.8333,1.5 12.1667,1.5 13.5,1.5C 13.5,4.5 13.5,7.5 13.5,10.5C 14.9778,10.238 16.3112,10.5713 17.5,11.5C 13.5,18.1667 9.5,18.1667 5.5,11.5C 6.68884,10.5713 8.02218,10.238 9.5,10.5C 9.5,7.5 9.5,4.5 9.5,1.5 Z"/></g>
<g><path style="opacity:0.976" fill="#fefffe" d="M 1.5,19.5 C 8.19979,19.17 14.8665,19.5033 21.5,20.5C 18.1667,20.8333 14.8333,21.1667 11.5,21.5C 7.76138,21.4864 4.42805,20.8197 1.5,19.5 Z"/></g>
</svg>
