<?xml version="1.0" encoding="UTF-8"?>
<!DOCTYPE svg PUBLIC "-//W3C//DTD SVG 1.1//EN" "http://www.w3.org/Graphics/SVG/1.1/DTD/svg11.dtd">
<svg xmlns="http://www.w3.org/2000/svg" version="1.1" width="500px" height="500px" style="shape-rendering:geometricPrecision; text-rendering:geometricPrecision; image-rendering:optimizeQuality; fill-rule:evenodd; clip-rule:evenodd" xmlns:xlink="http://www.w3.org/1999/xlink">
<g><path style="opacity:0.318" fill="#01ebfd" d="M 499.5,219.5 C 499.5,242.167 499.5,264.833 499.5,287.5C 488.407,293.083 478.24,300.083 469,308.5C 459.57,334.36 447.237,358.693 432,381.5C 406.11,416.381 372.943,441.881 332.5,458C 328.922,462.713 326.088,467.879 324,473.5C 317.086,483.535 307.586,487.368 295.5,485C 285.756,481.59 278.923,475.09 275,465.5C 267.667,449.5 260.333,433.5 253,417.5C 251.333,416.167 249.667,416.167 248,417.5C 239.18,437.139 229.846,456.473 220,475.5C 205.968,490.105 191.968,490.105 178,475.5C 175.229,469.459 172.062,463.625 168.5,458C 119.172,438.333 81.3383,405.5 55,359.5C 46.4938,342.825 38.8271,325.825 32,308.5C 22.1029,299.472 11.2696,291.805 -0.5,285.5C -0.5,264.167 -0.5,242.833 -0.5,221.5C 11.4109,214.281 22.5776,205.947 33,196.5C 62.1174,109.714 121.284,56.2137 210.5,36C 212.167,35 213.833,34 215.5,33C 230.853,13.3926 249.853,9.05925 272.5,20C 277.5,23.6667 281.833,28 285.5,33C 287.167,34 288.833,35 290.5,36C 379.716,56.2137 438.883,109.714 468,196.5C 477.406,205.775 487.906,213.441 499.5,219.5 Z M 248.5,223.5 C 281.009,224.324 304.176,239.324 318,268.5C 328.809,303.403 319.642,331.57 290.5,353C 280.5,357.667 270.5,362.333 260.5,367C 257.547,369.793 254.213,371.96 250.5,373.5C 246.787,371.96 243.453,369.793 240.5,367C 230.5,362.333 220.5,357.667 210.5,353C 181.358,331.57 172.191,303.403 183,268.5C 196.031,240.628 217.864,225.628 248.5,223.5 Z"/></g>
<g><path style="opacity:0.996" fill="#204ce0" d="M 244.5,51.5 C 244.5,66.1667 244.5,80.8333 244.5,95.5C 243.167,95.5 241.833,95.5 240.5,95.5C 238.712,95.7852 237.045,95.4519 235.5,94.5C 225.504,79.9554 226.837,66.4554 239.5,54C 241.078,52.9055 242.745,52.0722 244.5,51.5 Z"/></g>
<g><path style="opacity:0.996" fill="#204de4" d="M 282.5,60.5 C 284.787,66.6448 285.954,72.9781 286,79.5C 285.293,85.5771 282.96,90.9104 279,95.5C 277.644,96.3802 276.144,96.7135 274.5,96.5C 268.771,96.7877 263.104,96.4544 257.5,95.5C 256.334,75.5083 256.167,55.5083 257,35.5C 262.291,43.2476 267.458,51.081 272.5,59C 275.726,60.1989 279.059,60.6989 282.5,60.5 Z"/></g>
<g><path style="opacity:0.996" fill="#1e47d2" d="M 244.5,51.5 C 242.745,52.0722 241.078,52.9055 239.5,54C 226.837,66.4554 225.504,79.9554 235.5,94.5C 237.045,95.4519 238.712,95.7852 240.5,95.5C 233.677,96.4909 226.677,97.1575 219.5,97.5C 214.32,86.6517 213.153,75.3184 216,63.5C 216.985,62.1859 218.152,61.1859 219.5,60.5C 222.748,60.0986 225.915,59.432 229,58.5C 233.751,50.6626 238.751,42.996 244,35.5C 244.499,40.8229 244.666,46.1563 244.5,51.5 Z"/></g>
<g><path style="opacity:0.996" fill="#1b41bf" d="M 219.5,60.5 C 218.152,61.1859 216.985,62.1859 216,63.5C 213.153,75.3184 214.32,86.6517 219.5,97.5C 215.985,98.9193 212.319,99.586 208.5,99.5C 205.423,95.4554 203.589,90.7887 203,85.5C 201.99,77.9934 202.49,70.6601 204.5,63.5C 209.366,61.9658 214.366,60.9658 219.5,60.5 Z"/></g>
<g><path style="opacity:0.996" fill="#1e47d1" d="M 282.5,60.5 C 288.262,61.4206 293.929,62.7539 299.5,64.5C 301.935,76.3937 300.435,87.727 295,98.5C 293.644,99.3802 292.144,99.7135 290.5,99.5C 284.933,99.0759 279.599,98.0759 274.5,96.5C 276.144,96.7135 277.644,96.3802 279,95.5C 282.96,90.9104 285.293,85.5771 286,79.5C 285.954,72.9781 284.787,66.6448 282.5,60.5 Z"/></g>
<g><path style="opacity:0.996" fill="#183aac" d="M 204.5,63.5 C 202.49,70.6601 201.99,77.9934 203,85.5C 203.589,90.7887 205.423,95.4554 208.5,99.5C 204.718,101.201 200.718,102.534 196.5,103.5C 194.7,97.5961 193.2,91.5961 192,85.5C 191.501,79.5092 191.334,73.5092 191.5,67.5C 195.828,66.1672 200.162,64.8338 204.5,63.5 Z"/></g>
<g><path style="opacity:0.996" fill="#1a3db6" d="M 299.5,64.5 C 306.643,66.6588 313.643,68.9921 320.5,71.5C 320.846,83.0911 318.512,94.0911 313.5,104.5C 312.675,105.386 311.675,105.719 310.5,105.5C 303.678,103.667 297.012,101.667 290.5,99.5C 292.144,99.7135 293.644,99.3802 295,98.5C 300.435,87.727 301.935,76.3937 299.5,64.5 Z"/></g>
<g><path style="opacity:0.996" fill="#153193" d="M 191.5,67.5 C 191.334,73.5092 191.501,79.5092 192,85.5C 193.2,91.5961 194.7,97.5961 196.5,103.5C 192.838,104.832 189.172,106.165 185.5,107.5C 180.289,96.001 178.289,84.001 179.5,71.5C 183.486,70.1763 187.486,68.843 191.5,67.5 Z"/></g>
<g><path style="opacity:0.996" fill="#16359d" d="M 320.5,71.5 C 324.137,72.2635 327.47,73.5968 330.5,75.5C 330.271,85.1475 328.437,94.4808 325,103.5C 324.186,106.177 322.686,108.177 320.5,109.5C 316.884,108.686 313.551,107.352 310.5,105.5C 311.675,105.719 312.675,105.386 313.5,104.5C 318.512,94.0911 320.846,83.0911 320.5,71.5 Z"/></g>
<g><path style="opacity:0.996" fill="#11297a" d="M 179.5,71.5 C 178.289,84.001 180.289,96.001 185.5,107.5C 181.957,109.438 178.29,111.105 174.5,112.5C 170.262,100.879 167.928,88.8787 167.5,76.5C 171.261,74.4625 175.261,72.7958 179.5,71.5 Z"/></g>
<g><path style="opacity:0.996" fill="#132d86" d="M 330.5,75.5 C 334.582,76.3764 338.249,78.0431 341.5,80.5C 341.66,92.3672 338.66,103.367 332.5,113.5C 332.043,114.298 331.376,114.631 330.5,114.5C 326.849,113.341 323.515,111.674 320.5,109.5C 322.686,108.177 324.186,106.177 325,103.5C 328.437,94.4808 330.271,85.1475 330.5,75.5 Z"/></g>
<g><path style="opacity:0.996" fill="#0d2061" d="M 167.5,76.5 C 167.928,88.8787 170.262,100.879 174.5,112.5C 171.669,114.417 168.669,116.083 165.5,117.5C 162.679,114.525 160.845,110.858 160,106.5C 157.542,98.669 156.042,90.669 155.5,82.5C 159.182,79.9922 163.182,77.9922 167.5,76.5 Z"/></g>
<g><path style="opacity:0.996" fill="#0f256d" d="M 341.5,80.5 C 345.783,81.9751 349.783,83.9751 353.5,86.5C 351.596,98.8025 347.262,110.136 340.5,120.5C 336.827,119 333.494,117 330.5,114.5C 331.376,114.631 332.043,114.298 332.5,113.5C 338.66,103.367 341.66,92.3672 341.5,80.5 Z"/></g>
<g><path style="opacity:0.996" fill="#0a1848" d="M 155.5,82.5 C 156.042,90.669 157.542,98.669 160,106.5C 160.845,110.858 162.679,114.525 165.5,117.5C 161.795,120.526 157.795,123.192 153.5,125.5C 148.379,114.109 144.379,102.442 141.5,90.5C 145.833,87.331 150.5,84.6643 155.5,82.5 Z"/></g>
<g><path style="opacity:0.996" fill="#0c1c54" d="M 353.5,86.5 C 357.336,88.5836 361.003,90.917 364.5,93.5C 363.781,98.5928 362.614,103.593 361,108.5C 358.079,113.341 355.412,118.341 353,123.5C 352.092,125.439 350.592,126.439 348.5,126.5C 345.527,124.853 342.86,122.853 340.5,120.5C 347.262,110.136 351.596,98.8025 353.5,86.5 Z"/></g>
<g><path style="opacity:0.996" fill="#071335" d="M 141.5,90.5 C 144.379,102.442 148.379,114.109 153.5,125.5C 150.81,128.185 147.81,130.518 144.5,132.5C 142.538,127.243 140.038,122.243 137,117.5C 135.279,110.833 133.113,104.5 130.5,98.5C 133.597,95.1116 137.264,92.4449 141.5,90.5 Z"/></g>
<g><path style="opacity:0.996" fill="#060e25" d="M 130.5,98.5 C 133.113,104.5 135.279,110.833 137,117.5C 140.038,122.243 142.538,127.243 144.5,132.5C 143.089,134.914 141.089,136.581 138.5,137.5C 131.813,126.803 126.813,115.47 123.5,103.5C 125.55,101.453 127.883,99.7859 130.5,98.5 Z"/></g>
<g><path style="opacity:0.996" fill="#08153c" d="M 364.5,93.5 C 369.052,96.6025 373.386,99.9358 377.5,103.5C 377.106,107.406 375.94,111.072 374,114.5C 370.415,120.002 367.081,125.669 364,131.5C 362.629,133.041 361.129,134.375 359.5,135.5C 355.978,132.25 352.311,129.25 348.5,126.5C 350.592,126.439 352.092,125.439 353,123.5C 355.412,118.341 358.079,113.341 361,108.5C 362.614,103.593 363.781,98.5928 364.5,93.5 Z"/></g>
<g><path style="opacity:0.996" fill="#060f2b" d="M 377.5,103.5 C 379.858,105.529 382.192,107.529 384.5,109.5C 379.576,120.672 373.576,131.339 366.5,141.5C 364.142,139.471 361.808,137.471 359.5,135.5C 361.129,134.375 362.629,133.041 364,131.5C 367.081,125.669 370.415,120.002 374,114.5C 375.94,111.072 377.106,107.406 377.5,103.5 Z"/></g>
<g><path style="opacity:0.996" fill="#030814" d="M 123.5,103.5 C 126.813,115.47 131.813,126.803 138.5,137.5C 134.472,141.859 130.472,146.193 126.5,150.5C 123.677,146.195 120.844,141.862 118,137.5C 115.373,130.434 112.207,123.768 108.5,117.5C 112.871,112.127 117.871,107.461 123.5,103.5 Z"/></g>
<g><path style="opacity:0.996" fill="#050b1e" d="M 384.5,109.5 C 387.833,112.167 390.833,115.167 393.5,118.5C 388.056,123.818 383.889,130.151 381,137.5C 377.414,140.899 374.914,144.899 373.5,149.5C 371.177,146.874 368.843,144.207 366.5,141.5C 373.576,131.339 379.576,120.672 384.5,109.5 Z"/></g>
<g><path style="opacity:0.996" fill="#010307" d="M 108.5,117.5 C 112.207,123.768 115.373,130.434 118,137.5C 120.844,141.862 123.677,146.195 126.5,150.5C 116.059,163.049 107.393,176.716 100.5,191.5C 97.1256,186.572 93.7923,181.406 90.5,176C 90.8333,175.667 91.1667,175.333 91.5,175C 89.9778,171.455 88.3112,167.955 86.5,164.5C 86.7093,163.914 87.0426,163.414 87.5,163C 84.637,158.363 83.3036,153.53 83.5,148.5C 89.9432,136.715 98.2766,126.382 108.5,117.5 Z"/></g>
<g><path style="opacity:0.996" fill="#1736a1" d="M 215.5,122.5 C 221.863,126.97 228.863,130.47 236.5,133C 247.484,135.152 258.484,135.486 269.5,134C 278.045,131.724 286.378,128.891 294.5,125.5C 296.216,125.629 297.883,125.962 299.5,126.5C 299.586,127.496 299.252,128.329 298.5,129C 271.506,143.492 244.173,144.158 216.5,131C 214.353,128.763 212.02,126.763 209.5,125C 210.056,124.617 210.389,124.117 210.5,123.5C 212.042,122.699 213.708,122.366 215.5,122.5 Z"/></g>
<g><path style="opacity:0.996" fill="#153294" d="M 210.5,123.5 C 210.389,124.117 210.056,124.617 209.5,125C 212.02,126.763 214.353,128.763 216.5,131C 244.173,144.158 271.506,143.492 298.5,129C 299.252,128.329 299.586,127.496 299.5,126.5C 301.75,127.13 303.75,128.13 305.5,129.5C 304.71,130.794 303.71,131.961 302.5,133C 279.653,146.271 255.319,149.604 229.5,143C 222.961,140.379 216.627,137.379 210.5,134C 208.112,131.371 206.112,128.538 204.5,125.5C 206.421,124.637 208.421,123.971 210.5,123.5 Z"/></g>
<g><path style="opacity:0.996" fill="#193cb2" d="M 294.5,125.5 C 286.378,128.891 278.045,131.724 269.5,134C 258.484,135.486 247.484,135.152 236.5,133C 228.863,130.47 221.863,126.97 215.5,122.5C 238.648,117.388 261.981,117.221 285.5,122C 288.662,123.027 291.662,124.194 294.5,125.5 Z"/></g>
<g><path style="opacity:0.996" fill="#132d86" d="M 204.5,125.5 C 206.112,128.538 208.112,131.371 210.5,134C 216.627,137.379 222.961,140.379 229.5,143C 255.319,149.604 279.653,146.271 302.5,133C 303.71,131.961 304.71,130.794 305.5,129.5C 309.137,130.263 312.47,131.597 315.5,133.5C 282.653,156.957 247.653,160.457 210.5,144C 203.991,139.644 197.658,135.144 191.5,130.5C 195.522,128.266 199.856,126.599 204.5,125.5 Z"/></g>
<g><path style="opacity:0.996" fill="#0f2269" d="M 188.5,131.5 C 193.683,138.173 200.016,143.673 207.5,148C 247.528,166.93 284.862,162.764 319.5,135.5C 320.833,136.167 322.167,136.833 323.5,137.5C 320.741,141.088 317.408,144.254 313.5,147C 274.034,170.317 234.701,170.317 195.5,147C 191.092,142.818 186.759,138.651 182.5,134.5C 184.5,133.5 186.5,132.5 188.5,131.5 Z"/></g>
<g><path style="opacity:0.996" fill="#020408" d="M 393.5,118.5 C 408.098,132.364 419.765,148.364 428.5,166.5C 427.307,170.541 426.807,174.541 427,178.5C 424.755,182.497 421.922,185.997 418.5,189C 419.471,190.204 420.471,190.704 421.5,190.5C 419.874,191.99 418.208,193.49 416.5,195C 417.833,196.84 417.666,197.34 416,196.5C 415.667,197.833 415.333,199.167 415,200.5C 412.482,203.571 409.982,206.571 407.5,209.5C 400.315,187.127 388.981,167.127 373.5,149.5C 374.914,144.899 377.414,140.899 381,137.5C 383.889,130.151 388.056,123.818 393.5,118.5 Z"/></g>
<g><path style="opacity:0.996" fill="#112775" d="M 191.5,130.5 C 197.658,135.144 203.991,139.644 210.5,144C 247.653,160.457 282.653,156.957 315.5,133.5C 317.153,133.66 318.486,134.326 319.5,135.5C 284.862,162.764 247.528,166.93 207.5,148C 200.016,143.673 193.683,138.173 188.5,131.5C 189.391,130.89 190.391,130.557 191.5,130.5 Z"/></g>
<g><path style="opacity:0.996" fill="#0b1b50" d="M 177.5,137.5 C 197.919,158.922 223.086,169.589 253,169.5C 281.777,168.745 307.277,159.411 329.5,141.5C 331.434,142.11 333.101,143.11 334.5,144.5C 304.432,168.796 270.099,178.629 231.5,174C 207.429,169.981 187.762,158.815 172.5,140.5C 173.965,139.263 175.632,138.263 177.5,137.5 Z"/></g>
<g><path style="opacity:0.996" fill="#060e26" d="M 158.5,150.5 C 179.106,173.227 204.606,187.561 235,193.5C 246.326,193.901 257.826,193.401 269.5,192C 270.672,191.581 271.672,190.915 272.5,190C 277.161,189.818 281.661,188.985 286,187.5C 288.308,187.793 290.474,186.959 292.5,185C 297.669,184.277 302.669,182.943 307.5,181C 310.952,177.94 314.952,175.94 319.5,175C 329.312,168.683 338.979,162.183 348.5,155.5C 350.5,156.833 352.167,158.5 353.5,160.5C 348.084,164.737 342.75,169.237 337.5,174C 324.979,182.627 311.312,188.96 296.5,193C 295.833,193.667 295.167,194.333 294.5,195C 289.286,196.637 283.953,197.637 278.5,198C 276.509,198.374 274.842,199.207 273.5,200.5C 257.039,197.505 240.705,197.839 224.5,201.5C 224.38,200.414 223.713,199.747 222.5,199.5C 210.604,196.384 199.271,191.884 188.5,186C 175.64,177.81 163.973,168.143 153.5,157C 152.906,156.536 152.239,156.369 151.5,156.5C 153.234,153.8 155.568,151.8 158.5,150.5 Z"/></g>
<g><path style="opacity:0.996" fill="#071236" d="M 166.5,144.5 C 173.956,151.112 181.623,157.612 189.5,164C 219.007,181.689 250.007,186.356 282.5,178C 287.747,175.911 293.414,173.911 299.5,172C 309.924,167.622 319.59,161.955 328.5,155C 333.439,154.552 336.773,152.052 338.5,147.5C 341.109,148.443 343.109,150.11 344.5,152.5C 342.314,154.634 339.981,156.801 337.5,159C 330.956,162.216 324.956,166.216 319.5,171C 312.357,173.043 305.69,176.043 299.5,180C 288.898,183.2 278.232,186.2 267.5,189C 247.982,191.012 228.982,189.012 210.5,183C 200.912,178.538 191.579,173.538 182.5,168C 177.457,163.288 172.123,158.955 166.5,155C 165.309,152.422 163.643,150.255 161.5,148.5C 162.579,146.457 164.246,145.124 166.5,144.5 Z"/></g>
<g><path style="opacity:0.996" fill="#0d1f5e" d="M 182.5,134.5 C 186.759,138.651 191.092,142.818 195.5,147C 234.701,170.317 274.034,170.317 313.5,147C 317.408,144.254 320.741,141.088 323.5,137.5C 325.882,138.351 327.882,139.684 329.5,141.5C 307.277,159.411 281.777,168.745 253,169.5C 223.086,169.589 197.919,158.922 177.5,137.5C 179.001,136.248 180.668,135.248 182.5,134.5 Z"/></g>
<g><path style="opacity:0.996" fill="#040a1c" d="M 151.5,156.5 C 152.239,156.369 152.906,156.536 153.5,157C 163.973,168.143 175.64,177.81 188.5,186C 199.271,191.884 210.604,196.384 222.5,199.5C 223.713,199.747 224.38,200.414 224.5,201.5C 221.177,202.492 217.844,203.492 214.5,204.5C 206.758,201.637 199.091,198.137 191.5,194C 182.527,188.336 173.527,182.67 164.5,177C 158.846,171.367 153.513,165.534 148.5,159.5C 149.167,158.167 150.167,157.167 151.5,156.5 Z"/></g>
<g><path style="opacity:0.996" fill="#0a1745" d="M 172.5,140.5 C 187.762,158.815 207.429,169.981 231.5,174C 270.099,178.629 304.432,168.796 334.5,144.5C 336.23,145.026 337.564,146.026 338.5,147.5C 336.773,152.052 333.439,154.552 328.5,155C 319.59,161.955 309.924,167.622 299.5,172C 293.414,173.911 287.747,175.911 282.5,178C 250.007,186.356 219.007,181.689 189.5,164C 181.623,157.612 173.956,151.112 166.5,144.5C 168.205,142.808 170.205,141.475 172.5,140.5 Z"/></g>
<g><path style="opacity:0.996" fill="#070614" d="M 83.5,148.5 C 83.3036,153.53 84.637,158.363 87.5,163C 87.0426,163.414 86.7093,163.914 86.5,164.5C 88.3112,167.955 89.9778,171.455 91.5,175C 91.1667,175.333 90.8333,175.667 90.5,176C 93.7923,181.406 97.1256,186.572 100.5,191.5C 97.578,197.598 95.2447,203.931 93.5,210.5C 88.0196,203.95 83.3529,196.783 79.5,189C 79.8333,188.667 80.1667,188.333 80.5,188C 78.2111,182.253 76.0444,176.42 74,170.5C 73.5045,168.527 73.3379,166.527 73.5,164.5C 76.3468,158.794 79.6802,153.461 83.5,148.5 Z"/></g>
<g><path style="opacity:0.996" fill="#040a1c" d="M 353.5,160.5 C 355.167,161.5 356.5,162.833 357.5,164.5C 352.145,167.342 347.478,171.175 343.5,176C 327.121,187.043 309.621,195.877 291,202.5C 288.702,201.554 286.868,202.221 285.5,204.5C 281.505,203.168 277.505,201.834 273.5,200.5C 274.842,199.207 276.509,198.374 278.5,198C 283.953,197.637 289.286,196.637 294.5,195C 295.167,194.333 295.833,193.667 296.5,193C 311.312,188.96 324.979,182.627 337.5,174C 342.75,169.237 348.084,164.737 353.5,160.5 Z"/></g>
<g><path style="opacity:0.996" fill="#020612" d="M 148.5,159.5 C 153.513,165.534 158.846,171.367 164.5,177C 173.527,182.67 182.527,188.336 191.5,194C 199.091,198.137 206.758,201.637 214.5,204.5C 208.707,207.23 203.04,210.23 197.5,213.5C 195.185,211.811 192.185,210.144 188.5,208.5C 186.35,206.851 184.35,205.018 182.5,203C 181.451,202.508 180.451,202.674 179.5,203.5C 176.023,199.431 171.69,196.931 166.5,196C 157.27,186.938 148.27,177.772 139.5,168.5C 142.167,165.167 145.167,162.167 148.5,159.5 Z"/></g>
<g><path style="opacity:0.996" fill="#030712" d="M 357.5,164.5 C 361.525,167.558 364.858,171.225 367.5,175.5C 364.129,176.323 360.796,177.489 357.5,179C 350.659,185.902 343.492,191.736 336,196.5C 327.102,201.023 318.602,205.523 310.5,210C 307.478,210.098 304.811,210.932 302.5,212.5C 296.954,209.56 291.287,206.894 285.5,204.5C 286.868,202.221 288.702,201.554 291,202.5C 309.621,195.877 327.121,187.043 343.5,176C 347.478,171.175 352.145,167.342 357.5,164.5 Z"/></g>
<g><path style="opacity:0.996" fill="#06102e" d="M 161.5,148.5 C 163.643,150.255 165.309,152.422 166.5,155C 172.123,158.955 177.457,163.288 182.5,168C 191.579,173.538 200.912,178.538 210.5,183C 228.982,189.012 247.982,191.012 267.5,189C 278.232,186.2 288.898,183.2 299.5,180C 305.69,176.043 312.357,173.043 319.5,171C 324.956,166.216 330.956,162.216 337.5,159C 339.981,156.801 342.314,154.634 344.5,152.5C 346.404,152.738 347.738,153.738 348.5,155.5C 338.979,162.183 329.312,168.683 319.5,175C 314.952,175.94 310.952,177.94 307.5,181C 302.669,182.943 297.669,184.277 292.5,185C 290.474,186.959 288.308,187.793 286,187.5C 281.661,188.985 277.161,189.818 272.5,190C 271.672,190.915 270.672,191.581 269.5,192C 257.826,193.401 246.326,193.901 235,193.5C 204.606,187.561 179.106,173.227 158.5,150.5C 158.973,149.094 159.973,148.427 161.5,148.5 Z"/></g>
<g><path style="opacity:0.996" fill="#0c0a20" d="M 73.5,164.5 C 73.3379,166.527 73.5045,168.527 74,170.5C 76.0444,176.42 78.2111,182.253 80.5,188C 80.1667,188.333 79.8333,188.667 79.5,189C 83.3529,196.783 88.0196,203.95 93.5,210.5C 91.9164,215.411 90.5831,220.411 89.5,225.5C 85.3688,222.2 81.7021,218.367 78.5,214C 76.4545,208.948 73.9545,204.115 71,199.5C 69.0626,195.354 67.7293,191.021 67,186.5C 66.6232,185.058 65.7899,184.058 64.5,183.5C 66.7176,176.734 69.7176,170.401 73.5,164.5 Z"/></g>
<g><path style="opacity:0.996" fill="#020307" d="M 139.5,168.5 C 148.27,177.772 157.27,186.938 166.5,196C 171.69,196.931 176.023,199.431 179.5,203.5C 180.451,202.674 181.451,202.508 182.5,203C 184.35,205.018 186.35,206.851 188.5,208.5C 192.185,210.144 195.185,211.811 197.5,213.5C 182.252,223.745 170.585,237.079 162.5,253.5C 156.473,251.651 150.473,249.485 144.5,247C 143.167,246 143.167,245 144.5,244C 138.04,240.936 131.707,237.603 125.5,234C 120.636,228.598 115.636,224.098 110.5,220.5C 116.56,201.037 126.226,183.704 139.5,168.5 Z"/></g>
<g><path style="opacity:0.996" fill="#080716" d="M 428.5,166.5 C 434.529,176.894 439.195,187.894 442.5,199.5C 439.533,203.87 437.033,208.203 435,212.5C 428.865,219.636 422.365,226.469 415.5,233C 414.906,233.464 414.239,233.631 413.5,233.5C 411.529,225.614 409.529,217.614 407.5,209.5C 409.982,206.571 412.482,203.571 415,200.5C 415.333,199.167 415.667,197.833 416,196.5C 417.666,197.34 417.833,196.84 416.5,195C 418.208,193.49 419.874,191.99 421.5,190.5C 420.471,190.704 419.471,190.204 418.5,189C 421.922,185.997 424.755,182.497 427,178.5C 426.807,174.541 427.307,170.541 428.5,166.5 Z"/></g>
<g><path style="opacity:0.996" fill="#020307" d="M 367.5,175.5 C 380.176,191.855 388.843,210.189 393.5,230.5C 393.762,231.978 393.429,233.311 392.5,234.5C 387.061,238.565 381.727,242.732 376.5,247C 369.82,249.173 363.486,252.173 357.5,256C 352.227,257.808 346.894,259.308 341.5,260.5C 333.649,240.316 320.649,224.316 302.5,212.5C 304.811,210.932 307.478,210.098 310.5,210C 318.602,205.523 327.102,201.023 336,196.5C 343.492,191.736 350.659,185.902 357.5,179C 360.796,177.489 364.129,176.323 367.5,175.5 Z"/></g>
<g><path style="opacity:0.996" fill="#100d2d" d="M 64.5,183.5 C 65.7899,184.058 66.6232,185.058 67,186.5C 67.7293,191.021 69.0626,195.354 71,199.5C 73.9545,204.115 76.4545,208.948 78.5,214C 81.7021,218.367 85.3688,222.2 89.5,225.5C 88.7428,228.791 88.0761,232.124 87.5,235.5C 86.7611,235.631 86.0944,235.464 85.5,235C 80.5245,229.937 75.6912,224.771 71,219.5C 67.628,212.133 64.128,204.467 60.5,196.5C 61.0569,191.835 62.3902,187.502 64.5,183.5 Z"/></g>
<g><path style="opacity:0.996" fill="#0e0d28" d="M 442.5,199.5 C 443.579,204.073 445.246,208.407 447.5,212.5C 445.882,214.785 443.882,216.785 441.5,218.5C 434.348,228.149 425.681,236.315 415.5,243C 414.748,243.671 414.414,244.504 414.5,245.5C 413.517,241.702 413.183,237.702 413.5,233.5C 414.239,233.631 414.906,233.464 415.5,233C 422.365,226.469 428.865,219.636 435,212.5C 437.033,208.203 439.533,203.87 442.5,199.5 Z"/></g>
<g><path style="opacity:0.996" fill="#171341" d="M 454.5,219.5 C 457.81,221.482 460.81,223.815 463.5,226.5C 457.683,233.479 451.017,239.646 443.5,245C 446.365,245.183 449.031,245.683 451.5,246.5C 438.989,246.829 426.655,246.495 414.5,245.5C 419.297,245.879 423.964,245.379 428.5,244C 437.968,236.699 446.635,228.532 454.5,219.5 Z"/></g>
<g><path style="opacity:0.996" fill="#110e30" d="M 447.5,212.5 C 449.527,215.194 451.861,217.527 454.5,219.5C 446.635,228.532 437.968,236.699 428.5,244C 423.964,245.379 419.297,245.879 414.5,245.5C 414.414,244.504 414.748,243.671 415.5,243C 425.681,236.315 434.348,228.149 441.5,218.5C 443.882,216.785 445.882,214.785 447.5,212.5 Z"/></g>
<g><path style="opacity:0.996" fill="#1f1755" d="M 49.5,217.5 C 50.4959,217.414 51.3292,217.748 52,218.5C 57.1235,228.796 64.2902,237.463 73.5,244.5C 69.8927,245.489 66.226,245.823 62.5,245.5C 61.1266,245.657 59.7932,245.49 58.5,245C 55.9901,242.989 53.6568,240.822 51.5,238.5C 48.0773,233.439 44.7439,228.439 41.5,223.5C 43.8599,221.147 46.5265,219.147 49.5,217.5 Z"/></g>
<g><path style="opacity:0.996" fill="#0a091c" d="M 110.5,220.5 C 115.636,224.098 120.636,228.598 125.5,234C 131.707,237.603 138.04,240.936 144.5,244C 143.167,245 143.167,246 144.5,247C 150.473,249.485 156.473,251.651 162.5,253.5C 159.938,258.624 157.938,263.957 156.5,269.5C 138.582,262.072 121.748,252.738 106,241.5C 105.768,242.737 105.268,243.737 104.5,244.5C 105.373,236.109 107.373,228.109 110.5,220.5 Z"/></g>
<g><path style="opacity:0.996" fill="#201959" d="M 463.5,226.5 C 467.896,229.025 471.896,232.025 475.5,235.5C 471.361,239.988 466.694,243.655 461.5,246.5C 458.167,246.5 454.833,246.5 451.5,246.5C 449.031,245.683 446.365,245.183 443.5,245C 451.017,239.646 457.683,233.479 463.5,226.5 Z"/></g>
<g><path style="opacity:0.996" fill="#171341" d="M 60.5,196.5 C 64.128,204.467 67.628,212.133 71,219.5C 75.6912,224.771 80.5245,229.937 85.5,235C 86.0944,235.464 86.7611,235.631 87.5,235.5C 87.7892,239.106 87.4558,242.606 86.5,246C 78.5069,246.5 70.5069,246.666 62.5,246.5C 62.5,246.167 62.5,245.833 62.5,245.5C 66.226,245.823 69.8927,245.489 73.5,244.5C 64.2902,237.463 57.1235,228.796 52,218.5C 51.3292,217.748 50.4959,217.414 49.5,217.5C 50.4577,216.038 51.6244,214.705 53,213.5C 55.6315,207.728 58.1315,202.061 60.5,196.5 Z"/></g>
<g><path style="opacity:0.996" fill="#302886" d="M 26.5,234.5 C 30.3075,238.122 33.6409,242.122 36.5,246.5C 27.8269,246.666 19.1603,246.5 10.5,246C 15.712,241.948 21.0454,238.115 26.5,234.5 Z"/></g>
<g><path style="opacity:0.996" fill="#261e6a" d="M 41.5,223.5 C 44.7439,228.439 48.0773,233.439 51.5,238.5C 53.6568,240.822 55.9901,242.989 58.5,245C 59.7932,245.49 61.1266,245.657 62.5,245.5C 62.5,245.833 62.5,246.167 62.5,246.5C 53.8333,246.5 45.1667,246.5 36.5,246.5C 33.6409,242.122 30.3075,238.122 26.5,234.5C 31.1955,230.479 36.1955,226.812 41.5,223.5 Z"/></g>
<g><path style="opacity:0.996" fill="#27206f" d="M 475.5,235.5 C 480.62,238.78 485.62,242.28 490.5,246C 480.839,246.5 471.172,246.666 461.5,246.5C 466.694,243.655 471.361,239.988 475.5,235.5 Z"/></g>
<g><path style="opacity:0.996" fill="#09081a" d="M 393.5,230.5 C 395.58,235.855 396.58,241.522 396.5,247.5C 381.04,258.299 363.706,265.965 344.5,270.5C 343.497,267.15 342.497,263.817 341.5,260.5C 346.894,259.308 352.227,257.808 357.5,256C 363.486,252.173 369.82,249.173 376.5,247C 381.727,242.732 387.061,238.565 392.5,234.5C 393.429,233.311 393.762,231.978 393.5,230.5 Z"/></g>
<g><path style="opacity:0.996" fill="#100d2d" d="M 156.5,269.5 C 156.073,272.01 155.407,274.343 154.5,276.5C 139.818,271.639 126.151,264.806 113.5,256C 111.564,255.187 109.564,254.687 107.5,254.5C 106.84,249.818 105.507,249.485 103.5,253.5C 103.704,250.482 104.037,247.482 104.5,244.5C 105.268,243.737 105.768,242.737 106,241.5C 121.748,252.738 138.582,262.072 156.5,269.5 Z"/></g>
<g><path style="opacity:0.996" fill="#0d0b25" d="M 396.5,247.5 C 397.403,250.391 397.736,253.391 397.5,256.5C 381.632,266.018 364.632,273.018 346.5,277.5C 345.833,275.167 345.167,272.833 344.5,270.5C 363.706,265.965 381.04,258.299 396.5,247.5 Z"/></g>
<g><path style="opacity:0.996" fill="#120e33" d="M 397.5,256.5 C 397.5,259.167 397.5,261.833 397.5,264.5C 381.396,273.321 364.729,279.988 347.5,284.5C 346.781,282.236 346.448,279.903 346.5,277.5C 364.632,273.018 381.632,266.018 397.5,256.5 Z"/></g>
<g><path style="opacity:0.996" fill="#251d66" d="M 63.5,259.5 C 71.5,259.5 79.5,259.5 87.5,259.5C 87.5111,266.242 88.1778,272.908 89.5,279.5C 79.8729,274.345 70.8729,268.178 62.5,261C 63.056,260.617 63.3893,260.117 63.5,259.5 Z"/></g>
<g><path style="opacity:0.996" fill="#2f2481" d="M 40.5,259.5 C 48.1667,259.5 55.8333,259.5 63.5,259.5C 63.3893,260.117 63.056,260.617 62.5,261C 70.8729,268.178 79.8729,274.345 89.5,279.5C 90.8335,284.834 92.1669,290.167 93.5,295.5C 85.5606,293.767 79.2273,289.6 74.5,283C 70.4352,282.283 66.7685,280.617 63.5,278C 55.3072,272.288 47.6405,266.122 40.5,259.5 Z"/></g>
<g><path style="opacity:0.996" fill="#201959" d="M 442.5,259.5 C 442.586,260.496 442.252,261.329 441.5,262C 431.763,268.344 421.763,274.177 411.5,279.5C 412.822,272.908 413.489,266.242 413.5,259.5C 423.167,259.5 432.833,259.5 442.5,259.5 Z"/></g>
<g><path style="opacity:0.996" fill="#342a91" d="M 477.5,259.5 C 482.179,259.334 486.845,259.501 491.5,260C 477.804,269.843 464.137,279.676 450.5,289.5C 450.082,288.778 449.416,288.278 448.5,288C 451.071,287.099 453.404,285.766 455.5,284C 454.167,283.333 452.833,283.333 451.5,284C 443.244,287.796 435.244,292.129 427.5,297C 419.412,300.209 411.412,303.709 403.5,307.5C 404.462,303.605 405.796,299.939 407.5,296.5C 407.415,297.995 408.081,298.995 409.5,299.5C 414.083,296.692 418.916,294.359 424,292.5C 427.951,290.214 431.618,287.547 435,284.5C 435.414,284.957 435.914,285.291 436.5,285.5C 441.231,282.468 446.231,279.968 451.5,278C 459.039,272.101 467.039,267.101 475.5,263C 476.823,262.184 477.489,261.017 477.5,259.5 Z"/></g>
<g><path style="opacity:0.996" fill="#17113f" d="M 154.5,276.5 C 154.073,280.824 153.739,285.158 153.5,289.5C 136.044,283.768 119.377,276.434 103.5,267.5C 103.5,262.833 103.5,258.167 103.5,253.5C 105.507,249.485 106.84,249.818 107.5,254.5C 109.564,254.687 111.564,255.187 113.5,256C 126.151,264.806 139.818,271.639 154.5,276.5 Z"/></g>
<g><path style="opacity:0.996" fill="#281e6d" d="M 442.5,259.5 C 449.5,259.5 456.5,259.5 463.5,259.5C 454.339,264.429 445.339,269.929 436.5,276C 433.595,277.286 430.595,278.286 427.5,279C 422.413,283.891 416.413,287.058 409.5,288.5C 410.01,285.461 410.677,282.461 411.5,279.5C 421.763,274.177 431.763,268.344 441.5,262C 442.252,261.329 442.586,260.496 442.5,259.5 Z"/></g>
<g><path style="opacity:0.996" fill="#17113f" d="M 397.5,264.5 C 397.5,266.5 397.5,268.5 397.5,270.5C 394.649,272.505 391.649,274.338 388.5,276C 374.951,280.968 361.284,285.468 347.5,289.5C 347.5,287.833 347.5,286.167 347.5,284.5C 364.729,279.988 381.396,273.321 397.5,264.5 Z"/></g>
<g><path style="opacity:0.996" fill="#20195a" d="M 103.5,267.5 C 119.377,276.434 136.044,283.768 153.5,289.5C 153.5,293.833 153.5,298.167 153.5,302.5C 149.229,301.182 144.895,300.015 140.5,299C 128.535,293.52 116.535,288.353 104.5,283.5C 103.725,278.203 103.392,272.87 103.5,267.5 Z"/></g>
<g><path style="opacity:0.996" fill="#2f2482" d="M 463.5,259.5 C 468.167,259.5 472.833,259.5 477.5,259.5C 477.489,261.017 476.823,262.184 475.5,263C 467.039,267.101 459.039,272.101 451.5,278C 446.231,279.968 441.231,282.468 436.5,285.5C 435.914,285.291 435.414,284.957 435,284.5C 431.618,287.547 427.951,290.214 424,292.5C 418.916,294.359 414.083,296.692 409.5,299.5C 408.081,298.995 407.415,297.995 407.5,296.5C 407.56,293.659 408.226,290.993 409.5,288.5C 416.413,287.058 422.413,283.891 427.5,279C 430.595,278.286 433.595,277.286 436.5,276C 445.339,269.929 454.339,264.429 463.5,259.5 Z"/></g>
<g><path style="opacity:0.996" fill="#1e1754" d="M 397.5,270.5 C 397.46,275.193 397.127,279.859 396.5,284.5C 380.625,290.902 364.292,295.902 347.5,299.5C 347.5,296.167 347.5,292.833 347.5,289.5C 361.284,285.468 374.951,280.968 388.5,276C 391.649,274.338 394.649,272.505 397.5,270.5 Z"/></g>
<g><path style="opacity:0.996" fill="#251c65" d="M 396.5,284.5 C 396.167,286.5 395.833,288.5 395.5,290.5C 379.613,297.018 363.279,302.351 346.5,306.5C 347.219,304.236 347.552,301.903 347.5,299.5C 364.292,295.902 380.625,290.902 396.5,284.5 Z"/></g>
<g><path style="opacity:0.996" fill="#382f9b" d="M 40.5,259.5 C 47.6405,266.122 55.3072,272.288 63.5,278C 66.7685,280.617 70.4352,282.283 74.5,283C 79.2273,289.6 85.5606,293.767 93.5,295.5C 96.1055,303.65 99.1055,311.65 102.5,319.5C 102.631,320.239 102.464,320.906 102,321.5C 90.0459,314.111 78.2125,306.611 66.5,299C 65.1667,297.667 63.8333,296.333 62.5,295C 59.0379,293.415 55.7045,291.581 52.5,289.5C 51.8933,289.624 51.56,289.957 51.5,290.5C 37.6582,280.165 23.6582,269.998 9.5,260C 19.828,259.5 30.1613,259.334 40.5,259.5 Z"/></g>
<g><path style="opacity:0.996" fill="#3e38ac" d="M 102.5,319.5 C 106.577,327.321 110.91,334.988 115.5,342.5C 115.631,343.239 115.464,343.906 115,344.5C 106.098,341.304 98.2649,336.471 91.5,330C 85.2145,328.03 80.2145,324.363 76.5,319C 72.3806,318.572 69.3806,316.572 67.5,313C 64.1864,311.113 61.1864,308.946 58.5,306.5C 57.2528,300.674 54.9195,295.341 51.5,290.5C 51.56,289.957 51.8933,289.624 52.5,289.5C 55.7045,291.581 59.0379,293.415 62.5,295C 63.8333,296.333 65.1667,297.667 66.5,299C 78.2125,306.611 90.0459,314.111 102,321.5C 102.464,320.906 102.631,320.239 102.5,319.5 Z"/></g>
<g><path style="opacity:0.996" fill="#2d237d" d="M 395.5,290.5 C 394.993,296.069 393.66,301.402 391.5,306.5C 377.87,311.654 363.87,315.487 349.5,318C 347.359,318.573 345.359,319.406 343.5,320.5C 345.052,315.98 346.052,311.313 346.5,306.5C 363.279,302.351 379.613,297.018 395.5,290.5 Z"/></g>
<g><path style="opacity:0.996" fill="#2a2073" d="M 104.5,283.5 C 116.535,288.353 128.535,293.52 140.5,299C 144.895,300.015 149.229,301.182 153.5,302.5C 154.681,306.743 155.348,311.076 155.5,315.5C 138.907,311.36 123.074,305.36 108,297.5C 107.536,298.094 107.369,298.761 107.5,299.5C 106.269,294.338 105.269,289.004 104.5,283.5 Z"/></g>
<g><path style="opacity:0.996" fill="#302684" d="M 155.5,315.5 C 156.892,318.007 157.892,320.673 158.5,323.5C 145.282,320.261 132.449,315.927 120,310.5C 119.586,310.957 119.086,311.291 118.5,311.5C 115.643,309.242 112.643,307.242 109.5,305.5C 108.542,303.698 107.875,301.698 107.5,299.5C 107.369,298.761 107.536,298.094 108,297.5C 123.074,305.36 138.907,311.36 155.5,315.5 Z"/></g>
<g><path style="opacity:0.996" fill="#3c30a6" d="M 450.5,289.5 C 446.407,295.018 443.407,301.018 441.5,307.5C 433.408,311.037 425.408,314.87 417.5,319C 415.167,319.333 412.833,319.667 410.5,320C 406.387,323.141 401.887,325.641 397,327.5C 395.97,327.164 395.47,326.497 395.5,325.5C 398.169,319.496 400.836,313.496 403.5,307.5C 411.412,303.709 419.412,300.209 427.5,297C 435.244,292.129 443.244,287.796 451.5,284C 452.833,283.333 454.167,283.333 455.5,284C 453.404,285.766 451.071,287.099 448.5,288C 449.416,288.278 450.082,288.778 450.5,289.5 Z"/></g>
<g><path style="opacity:0.996" fill="#413ab6" d="M 441.5,307.5 C 441.08,311.007 440.08,314.341 438.5,317.5C 423.663,327.758 407.996,336.758 391.5,344.5C 389.253,343.626 386.92,343.292 384.5,343.5C 388.181,337.464 391.848,331.464 395.5,325.5C 395.47,326.497 395.97,327.164 397,327.5C 401.887,325.641 406.387,323.141 410.5,320C 412.833,319.667 415.167,319.333 417.5,319C 425.408,314.87 433.408,311.037 441.5,307.5 Z"/></g>
<g><path style="opacity:0.996" fill="#382b99" d="M 391.5,306.5 C 390.402,312.265 388.402,317.599 385.5,322.5C 385.44,321.957 385.107,321.624 384.5,321.5C 369.927,327.027 354.927,330.693 339.5,332.5C 341.036,328.558 342.37,324.558 343.5,320.5C 345.359,319.406 347.359,318.573 349.5,318C 363.87,315.487 377.87,311.654 391.5,306.5 Z"/></g>
<g><path style="opacity:0.996" fill="#382b99" d="M 109.5,305.5 C 112.643,307.242 115.643,309.242 118.5,311.5C 119.086,311.291 119.586,310.957 120,310.5C 132.449,315.927 145.282,320.261 158.5,323.5C 160.167,328.167 161.833,332.833 163.5,337.5C 147.633,335.531 132.3,332.197 117.5,327.5C 113.868,320.613 111.202,313.279 109.5,305.5 Z"/></g>
<g><path style="opacity:0.996" fill="#4546c2" d="M 438.5,317.5 C 436.616,324.148 433.95,330.481 430.5,336.5C 411.609,346.778 392.276,356.278 372.5,365C 369.937,366.079 367.271,366.579 364.5,366.5C 371.413,358.98 378.079,351.313 384.5,343.5C 386.92,343.292 389.253,343.626 391.5,344.5C 407.996,336.758 423.663,327.758 438.5,317.5 Z"/></g>
<g><path style="opacity:0.996" fill="#4346bd" d="M 58.5,306.5 C 61.1864,308.946 64.1864,311.113 67.5,313C 69.3806,316.572 72.3806,318.572 76.5,319C 80.2145,324.363 85.2145,328.03 91.5,330C 98.2649,336.471 106.098,341.304 115,344.5C 115.464,343.906 115.631,343.239 115.5,342.5C 120.47,348.475 125.47,354.475 130.5,360.5C 130.217,361.289 129.717,361.956 129,362.5C 120.229,359.366 111.729,355.533 103.5,351C 90.2713,342.866 77.6046,334.366 65.5,325.5C 62.97,319.244 60.6366,312.91 58.5,306.5 Z"/></g>
<g><path style="opacity:0.996" fill="#3e34ac" d="M 117.5,327.5 C 132.3,332.197 147.633,335.531 163.5,337.5C 167.074,343.749 171.074,349.749 175.5,355.5C 168.857,354.835 162.191,354.335 155.5,354C 145.613,351.384 135.946,348.217 126.5,344.5C 122.723,339.281 119.723,333.615 117.5,327.5 Z"/></g>
<g><path style="opacity:0.996" fill="#4752cb" d="M 430.5,336.5 C 427.086,342.997 423.419,349.33 419.5,355.5C 407.897,360.966 396.23,366.466 384.5,372C 373.77,375.466 363.103,379.132 352.5,383C 349.633,383.801 346.966,383.634 344.5,382.5C 351.455,377.547 358.122,372.213 364.5,366.5C 367.271,366.579 369.937,366.079 372.5,365C 392.276,356.278 411.609,346.778 430.5,336.5 Z"/></g>
<g><path style="opacity:0.996" fill="#4653c6" d="M 65.5,325.5 C 77.6046,334.366 90.2713,342.866 103.5,351C 111.729,355.533 120.229,359.366 129,362.5C 129.717,361.956 130.217,361.289 130.5,360.5C 137.601,367.942 145.267,374.609 153.5,380.5C 153.44,381.043 153.107,381.376 152.5,381.5C 130.716,374.442 110.05,364.942 90.5,353C 85.1714,345.798 78.5048,340.298 70.5,336.5C 68.5617,332.957 66.8951,329.29 65.5,325.5 Z"/></g>
<g><path style="opacity:0.996" fill="#475fce" d="M 70.5,336.5 C 78.5048,340.298 85.1714,345.798 90.5,353C 110.05,364.942 130.716,374.442 152.5,381.5C 153.107,381.376 153.44,381.043 153.5,380.5C 163.379,386.941 173.713,392.607 184.5,397.5C 163.214,394.358 142.548,388.192 122.5,379C 109.162,372.666 96.162,365.833 83.5,358.5C 78.6627,351.496 74.3294,344.163 70.5,336.5 Z"/></g>
<g><path style="opacity:0.996" fill="#4338b9" d="M 385.5,322.5 C 381.051,334.068 375.051,344.734 367.5,354.5C 349.737,359.399 331.904,364.066 314,368.5C 313.601,368.272 313.435,367.938 313.5,367.5C 324.476,357.527 333.143,345.861 339.5,332.5C 354.927,330.693 369.927,327.027 384.5,321.5C 385.107,321.624 385.44,321.957 385.5,322.5 Z"/></g>
<g><path style="opacity:0.996" fill="#495fd2" d="M 419.5,355.5 C 416.522,360.469 413.189,365.135 409.5,369.5C 378.42,385.86 345.42,396.86 310.5,402.5C 309.167,402.333 307.833,402.167 306.5,402C 308.595,401.444 308.762,400.944 307,400.5C 305.629,401.581 304.129,402.415 302.5,403C 293.323,405.122 283.99,405.956 274.5,405.5C 273.441,402.382 272.108,399.382 270.5,396.5C 290.065,396.038 309.398,393.705 328.5,389.5C 324.557,392.478 320.223,394.978 315.5,397C 316.5,397.667 317.5,397.667 318.5,397C 327.355,392.408 336.022,387.575 344.5,382.5C 346.966,383.634 349.633,383.801 352.5,383C 363.103,379.132 373.77,375.466 384.5,372C 396.23,366.466 407.897,360.966 419.5,355.5 Z"/></g>
<g><path style="opacity:0.996" fill="#4340bc" d="M 126.5,344.5 C 135.946,348.217 145.613,351.384 155.5,354C 162.191,354.335 168.857,354.835 175.5,355.5C 181.892,362.525 188.892,368.859 196.5,374.5C 196.265,375.097 195.765,375.43 195,375.5C 188.157,373.228 181.324,372.228 174.5,372.5C 162.574,368.377 150.574,364.377 138.5,360.5C 134.147,355.473 130.147,350.14 126.5,344.5 Z"/></g>
<g><path style="opacity:0.996" fill="#496bd5" d="M 83.5,358.5 C 96.162,365.833 109.162,372.666 122.5,379C 142.548,388.192 163.214,394.358 184.5,397.5C 184.833,397.5 185.167,397.5 185.5,397.5C 198.961,401.054 212.628,403.721 226.5,405.5C 225.404,408.032 224.071,410.365 222.5,412.5C 177.929,408.529 135.929,396.195 96.5,375.5C 91.4508,370.412 87.1175,364.745 83.5,358.5 Z"/></g>
<g><path style="opacity:0.996" fill="#4747c7" d="M 367.5,354.5 C 362.203,361.464 356.203,367.798 349.5,373.5C 329.513,377.997 309.346,381.664 289,384.5C 287.93,384.472 287.097,384.139 286.5,383.5C 296.293,379.44 305.293,374.106 313.5,367.5C 313.435,367.938 313.601,368.272 314,368.5C 331.904,364.066 349.737,359.399 367.5,354.5 Z"/></g>
<g><path style="opacity:0.996" fill="#4969d6" d="M 409.5,369.5 C 405.924,375.413 401.591,380.746 396.5,385.5C 358.863,401.742 319.53,411.075 278.5,413.5C 277.167,410.833 275.833,408.167 274.5,405.5C 283.99,405.956 293.323,405.122 302.5,403C 304.129,402.415 305.629,401.581 307,400.5C 308.762,400.944 308.595,401.444 306.5,402C 307.833,402.167 309.167,402.333 310.5,402.5C 345.42,396.86 378.42,385.86 409.5,369.5 Z"/></g>
<g><path style="opacity:0.996" fill="#464fc8" d="M 138.5,360.5 C 150.574,364.377 162.574,368.377 174.5,372.5C 181.324,372.228 188.157,373.228 195,375.5C 195.765,375.43 196.265,375.097 196.5,374.5C 208.004,381.414 220.337,386.414 233.5,389.5C 232.864,391.78 231.864,393.78 230.5,395.5C 209.192,394.589 188.192,391.589 167.5,386.5C 156.615,379.287 146.949,370.62 138.5,360.5 Z"/></g>
<g><path style="opacity:0.996" fill="#4853cd" d="M 349.5,373.5 C 345.361,377.468 341.027,381.301 336.5,385C 333.941,386.777 331.274,388.277 328.5,389.5C 309.398,393.705 290.065,396.038 270.5,396.5C 269.312,394.278 268.312,391.945 267.5,389.5C 273.715,387.095 280.048,385.095 286.5,383.5C 287.097,384.139 287.93,384.472 289,384.5C 309.346,381.664 329.513,377.997 349.5,373.5 Z"/></g>
<g><path style="opacity:0.996" fill="#4b80de" d="M 108.5,389.5 C 143.896,405.266 180.896,415.266 219.5,419.5C 219.107,421.284 218.441,422.95 217.5,424.5C 204.426,422.846 191.426,420.68 178.5,418C 159.705,412.803 141.039,407.303 122.5,401.5C 117.514,397.845 112.847,393.845 108.5,389.5 Z"/></g>
<g><path style="opacity:0.996" fill="#485dd0" d="M 167.5,386.5 C 188.192,391.589 209.192,394.589 230.5,395.5C 229.164,398.838 227.831,402.171 226.5,405.5C 212.628,403.721 198.961,401.054 185.5,397.5C 179.166,394.335 173.166,390.669 167.5,386.5 Z"/></g>
<g><path style="opacity:0.996" fill="#4a77db" d="M 396.5,385.5 C 391.406,391.204 385.739,396.204 379.5,400.5C 348.021,411.453 315.687,418.453 282.5,421.5C 280.659,419.151 279.326,416.485 278.5,413.5C 319.53,411.075 358.863,401.742 396.5,385.5 Z"/></g>
<g><path style="opacity:0.996" fill="#4a78db" d="M 96.5,375.5 C 135.929,396.195 177.929,408.529 222.5,412.5C 222.293,415.241 221.293,417.574 219.5,419.5C 180.896,415.266 143.896,405.266 108.5,389.5C 104.132,385.133 100.132,380.467 96.5,375.5 Z"/></g>
<g><path style="opacity:0.996" fill="#4c8ce4" d="M 122.5,401.5 C 141.039,407.303 159.705,412.803 178.5,418C 191.426,420.68 204.426,422.846 217.5,424.5C 215.497,429.171 213.497,433.838 211.5,438.5C 198.2,436.17 184.867,433.837 171.5,431.5C 153.354,424.27 137.021,414.27 122.5,401.5 Z"/></g>
<g><path style="opacity:0.996" fill="#4b86e1" d="M 379.5,400.5 C 367.211,411.431 353.544,420.431 338.5,427.5C 321.93,430.484 305.264,432.817 288.5,434.5C 285.716,430.595 283.716,426.262 282.5,421.5C 315.687,418.453 348.021,411.453 379.5,400.5 Z"/></g>
<g><path style="opacity:0.996" fill="#4c98e8" d="M 338.5,427.5 C 329.479,431.666 320.146,435.333 310.5,438.5C 307.64,447.75 304.973,457.084 302.5,466.5C 297.27,456.044 292.603,445.377 288.5,434.5C 305.264,432.817 321.93,430.484 338.5,427.5 Z"/></g>
<g><path style="opacity:0.996" fill="#4c9eea" d="M 171.5,431.5 C 184.867,433.837 198.2,436.17 211.5,438.5C 207.437,447.626 203.103,456.626 198.5,465.5C 195.552,456.656 193.218,447.656 191.5,438.5C 184.469,436.936 177.802,434.602 171.5,431.5 Z"/></g>
</svg>
